<svg id="peeps" xmlns="http://www.w3.org/2000/svg" width="127.852" height="226.71" viewBox="0 0 227.852 326.71">
  <g id="BODY" transform="translate(0 107.846)">
    <g id="_Skin" data-name="âœ‹ Skin" transform="translate(2.303)">
      <path id="_Skin-2" data-name="âœ‹ Skin" d="M198.49,79.038c-4-18.912-18.166-33.588-37.224-40.9-3.663-2.07-7.214-10.952-12.138-12.579-.789-.261.456,1.814,0,1.938a5.237,5.237,0,0,1-5.25-1.108c-3.213-2.853-4.221-11.188-6.174-14.956C127.4-8.433,101.678-.659,98.231,21.3a80.47,80.47,0,0,1-8.415,4.2c-2.693,1.3-5.063,4.443-7.838,5.568-2.477,1-6.557.293-9.053,1.167-11.478,4.023-21.2,9.1-28.821,19.382-1.606,2.169-3.416,4.836-4.878,7.027C31.693,67.318,26.46,77.03,21.64,87.45,8.155,118.035,4.487,151.9,1.2,184.854c.075,5.766-3.755,21.754,1.909,24.518a.6.6,0,0,0,.412,1.049,232.817,232.817,0,0,1,42.829,3.636c6.822,1.2,13.607,2.857,20.556,3.128,14.425-.1,28.8-2.514,43.2-.229,17.318,0,38.364-.5,57.63-1.244,18.006-.692,36.108.87,53.891-2.189,1.408-.223,2.095-1.938,1.8-3.167-2.086-7.6-3.111-15.412-4.281-23.186a35.874,35.874,0,0,0-2.03-14.836Q209.88,125.305,198.49,79.038Z" transform="translate(0 0)" fill="#d08b5b"/>
      <path id="_Skin-3" data-name="âœ‹ Skin" d="M198.49,79.038c-4-18.912-18.166-33.588-37.224-40.9-3.663-2.07-7.214-10.952-12.138-12.579-.789-.261.456,1.814,0,1.938a5.237,5.237,0,0,1-5.25-1.108c-3.213-2.853-4.221-11.188-6.174-14.956C127.4-8.433,101.678-.659,98.231,21.3a80.47,80.47,0,0,1-8.415,4.2c-2.693,1.3-5.063,4.443-7.838,5.568-2.477,1-6.557.293-9.053,1.167-11.478,4.023-21.2,9.1-28.821,19.382-1.606,2.169-3.416,4.836-4.878,7.027C31.693,67.318,26.46,77.03,21.64,87.45,8.155,118.035,4.487,151.9,1.2,184.854c.075,5.766-3.755,21.754,1.909,24.518a.6.6,0,0,0,.412,1.049,232.817,232.817,0,0,1,42.829,3.636c6.822,1.2,13.607,2.857,20.556,3.128,14.425-.1,28.8-2.514,43.2-.229,17.318,0,38.364-.5,57.63-1.244,18.006-.692,36.108.87,53.891-2.189,1.408-.223,2.095-1.938,1.8-3.167-2.086-7.6-3.111-15.412-4.281-23.186a35.874,35.874,0,0,0-2.03-14.836Q209.88,125.305,198.49,79.038Z" transform="translate(0 0)" fill="#D08B5B"/>
    </g>
    <g id="_Jacket" data-name="ðŸ§¥ Jacket" transform="translate(2.303 25.653)">
      <path id="_Jacket-2" data-name="ðŸ§¥ Jacket" d="M149.128,1.961c.456-.124-.789-2.2,0-1.938,4.923,1.627,8.474,10.509,12.138,12.579,19.058,7.311,33.229,21.986,37.224,40.9q11.424,46.193,18.625,93.3a35.874,35.874,0,0,1,2.03,14.836l.184,1.228c1.1,7.368,2.121,14.763,4.1,21.958.3,1.229-.392,2.944-1.8,3.167-17.581,3.024-35.474,1.532-53.277,2.166l-3.711.139c-18.4.676-38.139,1.128-54.533,1.128-14.406-2.285-28.778.13-43.2.229-6.949-.271-13.734-1.923-20.556-3.128a232.817,232.817,0,0,0-42.829-3.636.6.6,0,0,1-.412-1.049c-5.664-2.764-1.834-18.752-1.909-24.518l.3-2.968C4.716,124.334,8.56,91.58,21.64,61.913l.392-.843c4.713-10.1,9.865-19.524,17.2-27.955l.448-.671c1.373-2.049,2.984-4.4,4.429-6.356C51.726,15.8,61.448,10.728,72.925,6.706c2.5-.875,6.576-.164,9.053-1.167,2.6-1.052,4.836-3.871,7.319-5.293V10.857l35.924,35.356L145.6,15l2.072-12.784A7.327,7.327,0,0,0,149.128,1.961Z" transform="translate(0 0)" fill="#7b72db"/>
      <g data-type="innerShadowGroup">
        <path id="_Jacket-3" data-name="ðŸ§¥ Jacket" d="M149.128,1.961c.456-.124-.789-2.2,0-1.938,4.923,1.627,8.474,10.509,12.138,12.579,19.058,7.311,33.229,21.986,37.224,40.9q11.424,46.193,18.625,93.3a35.874,35.874,0,0,1,2.03,14.836l.184,1.228c1.1,7.368,2.121,14.763,4.1,21.958.3,1.229-.392,2.944-1.8,3.167-17.581,3.024-35.474,1.532-53.277,2.166l-3.711.139c-18.4.676-38.139,1.128-54.533,1.128-14.406-2.285-28.778.13-43.2.229-6.949-.271-13.734-1.923-20.556-3.128a232.817,232.817,0,0,0-42.829-3.636.6.6,0,0,1-.412-1.049c-5.664-2.764-1.834-18.752-1.909-24.518l.3-2.968C4.716,124.334,8.56,91.58,21.64,61.913l.392-.843c4.713-10.1,9.865-19.524,17.2-27.955l.448-.671c1.373-2.049,2.984-4.4,4.429-6.356C51.726,15.8,61.448,10.728,72.925,6.706c2.5-.875,6.576-.164,9.053-1.167,2.6-1.052,4.836-3.871,7.319-5.293V10.857l35.924,35.356L145.6,15l2.072-12.784A7.327,7.327,0,0,0,149.128,1.961Z" transform="translate(0 0)" fill="#7b72db"/>
      </g>
    </g>
    <path id="_Ink" data-name="ðŸ– Ink" d="M200.388,211.56a4.8,4.8,0,0,1-3.348-1.3c-1.269-1.22-1.556-3.249-1.809-5.039-.061-.432-.119-.839-.188-1.228l-.351-1.9a407.508,407.508,0,0,1-5.963-43.162c-.3-4.152-.518-7.821-.653-11.216-.09-2.225-.1-4.487-.1-6.674,0-1.272-.007-2.587-.027-3.884l-.018-.96c-.085-3.825-.01-7.669.084-11.253.012-.5.036-1,.055-1.375a1.236,1.236,0,0,1-.267-.518l-.052-.236a1.882,1.882,0,0,1,.484-1.751c.05-.634.1-1.279.158-1.9v0c.16-1.888.326-3.84.38-5.759a.15.15,0,0,1,.157-.155.165.165,0,0,1,.169.155c.17,2.183.515,4.394.849,6.531a13.5,13.5,0,0,0,2.838-3.284,22.3,22.3,0,0,0,1.914-3.785.153.153,0,0,1,.144-.1.148.148,0,0,1,.115.053.146.146,0,0,1,.026.128,31.343,31.343,0,0,1-1.621,5.433,25.556,25.556,0,0,1-1.255,2.54c-.405.749-.824,1.523-1.163,2.319a1.207,1.207,0,0,1-.438.524l.058.453.054.453c.16,1.388.332,2.793.5,4.152.2,1.641.408,3.337.6,5.009l.167,1.529c.42,3.967,1,7.988,1.564,11.876v0c.342,2.364.7,4.809,1.009,7.215.72,5.526,1.582,12.067,2.521,18.688.875,6.152,1.822,12.7,2.927,19.214.455,2.68.938,5.4,1.434,8.09l.385,2.062a4.571,4.571,0,0,1,2.446,1.5,4.762,4.762,0,0,1,1.077,2.492,4.377,4.377,0,0,1-.446,2.525,4.311,4.311,0,0,1-.818,1.1,4.994,4.994,0,0,1-1.247.882A5.241,5.241,0,0,1,200.388,211.56Zm-37.362-1.031h-.012l-18.852-.072c-7.765-.031-15.66-.077-23.3-.121h-.018l-9.536-.055c-2.5-.013-5.212-.058-8.284-.138-2.607-.073-5.16-.394-7.628-.7a4.314,4.314,0,0,1-4.024-5.292c.059-.395.122-.794.183-1.181l0-.011c.035-.22.074-.469.112-.71a1.861,1.861,0,0,1-.584.094,1.618,1.618,0,0,1-1.141-.445l-.434-.425a7.1,7.1,0,0,1-1.523-1.974c-.275-.57-.518-1.171-.752-1.752-.1-.25-.2-.508-.311-.762-.749-1.788-1.487-3.606-2.193-5.4-1.524-3.87-2.89-7.361-4.174-10.906-2.6-7.183-4.944-14.591-6.96-22.018-1.782-6.565-3.348-13.315-4.655-20.062-1.294-6.68-2.366-13.525-3.187-20.344L65.367,115l-.114-.96a98.614,98.614,0,0,1-.9-15.925,29.548,29.548,0,0,1,1.9-9.712,37.053,37.053,0,0,1,3.809-6.672c.25-.375.509-.763.762-1.147l.191-.294.192-.3a20.521,20.521,0,0,0,1.869-3.578,11.457,11.457,0,0,0,.816-3.949,17.163,17.163,0,0,0-.479-4.208A38.854,38.854,0,0,0,72.2,64.184l-.231-.657-.155-.435c-.167-.466-.339-.939-.505-1.4l-.009-.025a67.438,67.438,0,0,1-2.42-7.582,26.026,26.026,0,0,1-.623-3.9,19.789,19.789,0,0,1,.079-4.026,26.989,26.989,0,0,1,1.574-6.3,30.226,30.226,0,0,1,2.9-5.664,41.6,41.6,0,0,1,8.708-9.458A58.216,58.216,0,0,0,64.361,31.24,68.53,68.53,0,0,0,47.818,44.6C39.9,53.229,33.277,64.019,26.977,78.563a206.539,206.539,0,0,0-7.3,19.61c-2.023,6.38-3.86,13.177-5.462,20.2a341.624,341.624,0,0,0-6.63,41.5c-.662,6.47-1.229,13.292-1.733,20.856-.087,1.317-.168,2.656-.246,3.952v.008c-.133,2.21-.271,4.5-.445,6.739-.047.609-.091,1.229-.133,1.829a50.816,50.816,0,0,1-1.137,8.8,1.58,1.58,0,0,1-.69.946,2.082,2.082,0,0,1-1.126.326,1.794,1.794,0,0,1-1.039-.311,1.439,1.439,0,0,1-.582-.961A58.629,58.629,0,0,1,.17,189.966l.016-.365c.171-3.826.4-7.865.688-12,.581-8.412,1.356-16.648,2.3-24.48.9-7.423,1.968-14.611,3.185-21.364,1.317-7.31,2.857-14.41,4.578-21.1,1.837-7.146,3.948-14.089,6.272-20.636,1.214-3.419,2.514-6.81,3.865-10.079,1.386-3.355,2.867-6.681,4.4-9.885s3.135-6.282,4.741-9.1c1.762-3.1,3.608-6.031,5.486-8.719a88.338,88.338,0,0,1,6.352-8.079A72.537,72.537,0,0,1,49.4,36.963,61.175,61.175,0,0,1,66.1,26.938a44.5,44.5,0,0,1,8.218-2.424,45.213,45.213,0,0,1,8.472-.789h.024a65.758,65.758,0,0,1,9.1-5.792A.191.191,0,0,1,92,17.909a.2.2,0,0,1,.179.123.174.174,0,0,1-.042.2l-.1.095h0c-.046.046-.094.093-.141.137a1.584,1.584,0,0,1,1.039.529A20.255,20.255,0,0,1,95.9,23.228c.621.775,1.239,1.575,1.836,2.349h0c.66.855,1.342,1.738,2.029,2.588,1.9,2.349,3.993,4.858,6.4,7.67,3.974,4.643,7.677,8.709,11.32,12.431l.655.666c.487.493.964,1,1.468,1.53a32.121,32.121,0,0,0,5.025,4.616l.128.085a2.507,2.507,0,0,0,1.322.515,1.716,1.716,0,0,0,1.275-.72,22.91,22.91,0,0,0,1.733-2.363l0,0c.124-.185.252-.376.378-.562l.156-.227a170.545,170.545,0,0,0,9.5-15.472c1.3-2.39,2.558-4.867,3.748-7.361l.354-.746c.163-.347.332-.695.494-1.031.484-1,.984-2.036,1.382-3.09.117-.311.235-.635.363-.989a10.511,10.511,0,0,1-3.727-5.772,8.713,8.713,0,0,1-.212-3.141,9.126,9.126,0,0,1,.894-3.007.424.424,0,0,1,.393-.227.467.467,0,0,1,.471.339,12.553,12.553,0,0,0,2.041,4.527,8.683,8.683,0,0,0,1.6,1.792,8.341,8.341,0,0,0,1.059.7c.218.129.442.262.657.406a2.428,2.428,0,0,1,.374-.029,2.647,2.647,0,0,1,1.9.822l-.092-.891a.205.205,0,0,1,.051-.163.285.285,0,0,1,.21-.085.233.233,0,0,1,.243.182c2.7,13.586,4.921,26.07,6.8,38.167l.871,5.644.82,5.3c1.3,8.412,2.649,17.391,3.67,26.549,1.41,12.664,2.471,24.338,3.244,35.687.731,10.768,1.263,22.219,1.673,36.035.058,1.976.12,3.985.179,5.928v.049q.048,1.557.1,3.114l.615-3.624c.556-3.286,1.195-7.108,1.731-10.894,1-7.012,1.8-13.425,2.45-19.606.732-6.932,1.256-13.372,1.6-19.69a159.288,159.288,0,0,0,.086-18.121c-.184-3.124-.491-6.156-.913-9.01a83.545,83.545,0,0,0-1.795-8.878,72.2,72.2,0,0,0-2.856-8.676c-.616-1.533-1.37-3.027-2.1-4.473-.579-1.148-1.178-2.335-1.7-3.533a16.414,16.414,0,0,1-1.327-4.669,14.742,14.742,0,0,1,.243-4.85c.217-1.03.494-2.054.763-3.044a29.1,29.1,0,0,0,1.145-5.736c.323-4.982-1.01-10.236-4.073-16.062-.658-1.251-1.385-2.55-2.162-3.863a123,123,0,0,0-7.527-11.118.16.16,0,0,1-.02-.175.238.238,0,0,1,.2-.123.183.183,0,0,1,.132.054c.648.639,1.324,1.288,1.978,1.916a69.713,69.713,0,0,1,5.31,5.478c1.179,1.414,2.189,2.7,3.088,3.917a36.251,36.251,0,0,1,7.793,2.231,39.581,39.581,0,0,1,7.09,3.816,43.98,43.98,0,0,1,6.255,5.142,47.828,47.828,0,0,1,5.286,6.209,69.13,69.13,0,0,1,8.457,16.366,137.578,137.578,0,0,1,5.078,17.765c2.213,9.8,4.2,19.82,6.125,29.514v0c.68,3.426,1.383,6.968,2.089,10.468.839,4.154,1.691,8.379,2.515,12.465l.032.157c1.9,9.421,3.864,19.163,5.815,28.762l.125.616.035.172c1.318,6.475,2.68,13.171,4.016,19.758.7,3.429,1.444,6.923,2.219,10.385.13.579.265,1.168.4,1.737l0,.017c.268,1.166.545,2.373.792,3.564a4.747,4.747,0,0,1-1.33,4.76,1.4,1.4,0,0,1-1.061.444,2.036,2.036,0,0,1-.854-.2l-.194-.091-.188-.091a3.786,3.786,0,0,1-1.851-1.61,6.9,6.9,0,0,1-.7-2.437v0c-.028-.175-.057-.356-.088-.535-.2-1.111-.395-2.239-.587-3.329l-.017-.1q-.2-1.123-.4-2.247c-.518-2.936-1.072-5.807-1.594-8.473l-2.77-14.1c-.607-3.091-1.409-7.167-2.223-11.275-2.451-12.4-4.94-24.968-7.347-37.127l-.629-3.176c-.8-4.051-1.588-8.178-2.347-12.168-1.661-8.723-3.378-17.744-5.373-26.541l-.165-.723-.168-.721c-.7-2.971-1.409-5.656-2.173-8.208-.855-2.857-1.752-5.468-2.741-7.982a70.365,70.365,0,0,0-7.907-14.926c-5.572-7.915-12.821-13.914-20.412-16.893.592.851,1.157,1.716,1.681,2.571a39.12,39.12,0,0,1,4.1,8.875,25.325,25.325,0,0,1,1.144,9.66,33.748,33.748,0,0,1-.666,3.929,23.5,23.5,0,0,0-.716,5.619c.083,2.218,1.17,4.231,2.221,6.178h0c.3.551.605,1.121.879,1.677A75.405,75.405,0,0,1,179.3,87.95c.627,2.977,1.127,6.11,1.487,9.314.336,2.993.562,6.155.671,9.4A179.6,179.6,0,0,1,181,125.514c-1.069,14.97-3.194,29.624-4.925,40.717-.557,3.567-1.219,7.178-1.86,10.671v0c-.6,3.276-1.223,6.663-1.755,10.005-.373,2.335-.846,4.7-1.3,6.993-.209,1.048-.425,2.131-.629,3.2l-.309,1.618c-.154.8-.342,1.749-.559,2.679l-.128.53v.1a2.921,2.921,0,0,1-.472,1.625,19.753,19.753,0,0,1-1.534,3.675,2.069,2.069,0,0,1-1.345,1.067,3.65,3.65,0,0,1-1.238,1.521A3.306,3.306,0,0,1,163.026,210.529ZM90.1,20.194c-.9.844-1.819,1.691-2.711,2.51l-.009.009c-.616.566-1.254,1.15-1.877,1.729l-.56.523-.557.525a56.039,56.039,0,0,0-7.406,8.238,29.05,29.05,0,0,0-4.414,9.148,20.249,20.249,0,0,0-.232,10.074,55.487,55.487,0,0,0,2.446,7.189,42.774,42.774,0,0,1,2.868,9.376,16.46,16.46,0,0,1-.878,8.558,34.409,34.409,0,0,1-3.423,6.052l0,0c-.357.541-.725,1.1-1.079,1.657-3.72,5.855-3.914,12.308-3.612,17.848.174,3.175.441,6.427.816,9.941.331,3.1.74,6.334,1.251,9.9a280.3,280.3,0,0,0,8.581,39.4c1.812,6.152,3.974,12.287,6.065,18.221l.323.916c1.15,3.263,2.482,6.406,3.75,9.317.648,1.485,1.355,3.065,2.162,4.829-.181-1.516-.242-3.078-.3-4.588v-.005c-.029-.741-.059-1.507-.1-2.251-.137-2.33-.3-4.693-.465-6.978-.059-.837-.126-1.785-.188-2.694-.44-6.382-.849-12.99-1.215-19.639-.715-13.088-1.23-24.551-1.576-35.043-.415-12.58-.6-24.052-.568-35.071.036-12.149.3-23.951.777-35.077.2-4.6.555-9.264.9-13.779v0c.064-.842.138-1.8.206-2.713l.088-1.177c.329-4.44.771-9.667,1.554-14.765a10.916,10.916,0,0,1-.559-1.53l-.051-.2.037.006A1.641,1.641,0,0,1,90.1,20.194ZM42.019,208.407a3.809,3.809,0,0,1-.508-.035,3.139,3.139,0,0,1-2.148-1.2,3.427,3.427,0,0,1-.608-1.377,4.636,4.636,0,0,1-.038-1.617c.925-6.377,2.122-14.8,3.172-23.421l1.085-8.912c1.231-10.08,2.685-21.8,4.358-33.384.674-4.662,1.362-9.244,2.067-13.919l-.244-.317c-.754-.978-1.54-1.956-2.3-2.9l0,0-.013-.016-.74-.922c-2.171-2.723-3.969-5-5.7-7.48a.141.141,0,0,1,0-.15.176.176,0,0,1,.148-.1.127.127,0,0,1,.078.027c2.51,1.852,4.89,3.835,7.309,5.872l2.1,1.777c1.22-8.084,2.4-16.009,3.474-24.068a.178.178,0,0,1,.178-.156.146.146,0,0,1,.106.042.154.154,0,0,1,.04.115c-.077,2.447-.146,4.936-.213,7.342-.15,5.412-.305,11.009-.565,16.508l-.129,2.711a2.922,2.922,0,0,1,.648,1.073,2.382,2.382,0,0,1,0,1.358,1.3,1.3,0,0,1-.812.883l-.122,2.521c-.533,10.879-1.192,22.525-2.4,33.98-1.472,14.008-3.2,28.227-4.872,41.977l-.056.457a4.206,4.206,0,0,1-1.03,2.356A3.024,3.024,0,0,1,42.019,208.407Zm56.1-190.742a1.515,1.515,0,0,1-.885-.251l-.242-.184c-.043-.034-.081-.065-.117-.1a1.73,1.73,0,0,1-.458-1.731,8.734,8.734,0,0,1,1.559-2.375,15.955,15.955,0,0,0,.988-1.286,23.906,23.906,0,0,0,1.917-3.48,36.767,36.767,0,0,0,2-6.72c.109-.473.221-.963.336-1.445a.122.122,0,0,1,.124-.1.137.137,0,0,1,.134.1A16.858,16.858,0,0,1,103.3,9.03a26.036,26.036,0,0,1-1.644,4.555l-.239.513a14.464,14.464,0,0,1-.983,1.834,5.237,5.237,0,0,1-1.4,1.481A1.655,1.655,0,0,1,98.118,17.664Z" transform="translate(0 7.305)"/>
  </g>
  <g id="HEAD" transform="translate(54.691)">
    <g id="_Skin-4" data-name="âœ‹ Skin" transform="translate(24.725 19.584)">
      <path id="_Skin-5" data-name="âœ‹ Skin" d="M49.178.022c43.234,1.37,45.842,21.931,45.842,56.411s-22.428,56.208-30.686,60-30,20.09-49.628,12.58S.764,89.778.764,76.145,5.944-1.349,49.178.022Z" transform="translate(0 0)" fill="#d08b5b"/>

    </g>
    <path id="_hijab" data-name="ðŸ§• hijab" d="M0,53.448Q13.409-1.294,48.957.031C84.5,1.357,84.13,37.632,81.9,34.324q-2.186-3.241-30.6-22.647l-1.171-.8Z" transform="translate(32.115 20.878)" fill="#a8a8a8"/>
    <path id="_Ink-2" data-name="ðŸ– Ink" d="M74.661,180.208c-6.03,0-11.77-2.314-16.591-4.578-8.6-4.035-17.169-8.54-25.458-12.9l-.006,0c-2.547-1.339-5.181-2.723-7.773-4.071-6.44-3.348-11.7-6.108-16.565-8.688-.458-.243-1.061-.57-1.653-.943l-.126,0H6.467c-.1,0-.211,0-.32,0-.369,0-.749.022-1.151.046s-.828.049-1.241.049a5.452,5.452,0,0,1-1.657-.211A2.927,2.927,0,0,1,.133,146.93a3.457,3.457,0,0,1-.127-1.181,5.206,5.206,0,0,1,.742-2.3,17.55,17.55,0,0,1,3.9-4.071l.276-.233c1.67-1.411,3.392-2.674,4.856-3.724.681-.488,1.38-.98,2.055-1.455,1.223-.86,2.488-1.749,3.7-2.661l.046-.07c.087-.132.176-.269.262-.406a22.924,22.924,0,0,0,3.323-9.956,32.971,32.971,0,0,1-1.947-2.692A70.158,70.158,0,0,1,9.534,101.6,89.437,89.437,0,0,1,5.82,83.676a82.366,82.366,0,0,1,.109-18.163A76.291,76.291,0,0,1,16.977,33.831,78.2,78.2,0,0,1,26.51,21.425,74.385,74.385,0,0,1,38.342,11.24a68.271,68.271,0,0,1,13.75-7.356A56.808,56.808,0,0,1,61.942,1,53.1,53.1,0,0,1,72.121,0,49.537,49.537,0,0,1,81.4.871,46.637,46.637,0,0,1,89,3.013a50.249,50.249,0,0,1,7.193,3.375,51.6,51.6,0,0,1,6.586,4.455,50.109,50.109,0,0,1,5.773,5.383,56.206,56.206,0,0,1,4.232,5.238,61.3,61.3,0,0,1,3.585,5.665,72.5,72.5,0,0,1,5.4,12.311,103.27,103.27,0,0,1,4.892,26.453,101.6,101.6,0,0,1-3.539,34.159,99.553,99.553,0,0,1-5.865,15.437,109.8,109.8,0,0,1-8.241,14.351c.3.445.624.919,1.063,1.536,1.461,2.046,3.02,4.256,4.524,6.552a45.5,45.5,0,0,1,3.573,6.337,22.782,22.782,0,0,1,1.97,6.92,18.169,18.169,0,0,1,.1,2.381,3.441,3.441,0,0,1-1.045,2.311,3.3,3.3,0,0,1-2.281,1.017,2.622,2.622,0,0,1-1.563-.518,7.168,7.168,0,0,0-4.344-1.385,12.923,12.923,0,0,0-4.072.764c-1.508,1.913-3.072,3.833-4.647,5.706-3.706,4.4-7.907,9.389-12.9,13.252a27.949,27.949,0,0,1-6.9,3.986,21.475,21.475,0,0,1-7.8,1.51ZM32.192,138.6a1.1,1.1,0,0,0-.733.287,1.322,1.322,0,0,0-.409.666,1,1,0,0,0,.537,1.181c4.815,2.585,10.422,4.359,17.647,5.582a1.322,1.322,0,0,0,.22.019,1.267,1.267,0,0,0,1.218-1.184.931.931,0,0,0-.827-1.053,73.794,73.794,0,0,1-8.774-1.979,43.9,43.9,0,0,1-8.324-3.372A1.167,1.167,0,0,0,32.192,138.6Zm8.461-9.428a1.286,1.286,0,0,0-1.151.806,1,1,0,0,0,.29,1.134,43.413,43.413,0,0,0,12.048,7.711,59.471,59.471,0,0,0,13.773,4.014,1.319,1.319,0,0,0,.221.019,1.265,1.265,0,0,0,1.217-1.182.933.933,0,0,0-.827-1.056A58.685,58.685,0,0,1,53,136.831a44.369,44.369,0,0,1-6.091-3.173,38.07,38.07,0,0,1-5.491-4.169A1.122,1.122,0,0,0,40.653,129.177Zm42.33-96.088-.566.461-.037.03-.541.441c-.933.761-1.869,1.531-2.775,2.275l0,0c-1.362,1.119-2.769,2.275-4.162,3.4-4.97,4.024-9.882,8.128-13.607,11.254C54.014,57.062,44.408,65.1,34.648,73.142a49.462,49.462,0,0,0-.029,18.224c1.184,6.818,3.786,13.145,6.423,18.966,1.924,1.8,3.558,3.263,5.142,4.6,1.883,1.587,3.674,2.974,5.474,4.24a53.521,53.521,0,0,0,14.213,7.342,36.04,36.04,0,0,0,11.2,1.854,29.1,29.1,0,0,0,14.375-3.672c6.353-3.554,11.861-9.426,15.928-16.982,8.441-15.686,7.163-34.394,5.13-52.212a1.335,1.335,0,0,1-.188.013,1.517,1.517,0,0,1-.39-.053,6.346,6.346,0,0,1-2.822-2.183c-.252-.281-.489-.547-.734-.794-1.162-1.172-2.351-2.311-3.533-3.385-2.254-2.048-4.677-4.048-7.2-5.944-2.5-1.872-5.139-3.618-7.7-5.307C87.633,36.325,85.25,34.75,82.983,33.089Zm1.1-5.418a31.218,31.218,0,0,0-16.62,5.2c-2.4,1.522-4.858,3.264-7.319,5.176-2.24,1.741-4.552,3.68-6.871,5.764C43.3,52.777,37.307,61.9,34.961,71.71l-.019.08c-.039.163-.078.331-.116.5,7.82-7.662,16.136-15.429,24.717-23.085,2.62-2.337,5.292-4.7,7.876-6.992l.005,0,0,0c1.734-1.536,3.527-3.124,5.289-4.689,1.99-1.767,4.04-3.533,6.022-5.242l.728-.628.805-.694.007-.006c.844-.728,1.717-1.48,2.577-2.217.147-.126.3-.258.44-.386l0,0C83.552,28.117,83.814,27.885,84.08,27.671Zm3.9.236a1.433,1.433,0,0,1-.061.25,4.4,4.4,0,0,1-.961,1.585,12.43,12.43,0,0,1-1.385,1.234l0,0-.258.209c-.387.313-.774.63-1.106.9a39.263,39.263,0,0,1,8.028,3.432,71.318,71.318,0,0,1,7.351,4.765,89.2,89.2,0,0,1,7.73,6.321c1.193,1.089,2.38,2.231,3.528,3.394.181.183.375.368.581.563l0,0c.183.174.373.354.56.54l-.032-.271,0-.033c-.017-.144-.034-.289-.051-.433a1.884,1.884,0,0,1,.371-1.328,29.56,29.56,0,0,0-9.022-14.189A28.841,28.841,0,0,0,87.984,27.907Z" transform="translate(0)"/>
  </g>
  <g id="FACE" transform="translate(114.853 57.805)">
    <path id="_Ink-3" data-name="ðŸ– Ink" d="M31.1,55.163a10.974,10.974,0,0,1-4.158-.829,11.75,11.75,0,0,1-2.714-1.558,11.556,11.556,0,0,1-2.21-2.227,2.279,2.279,0,0,1-.461-1.765,2.545,2.545,0,0,1,.992-1.6A2.445,2.445,0,0,1,24,46.682a2.112,2.112,0,0,1,.325.025,2.245,2.245,0,0,1,1.5.993l.089.122a7.757,7.757,0,0,0,2.843,2.383,6.459,6.459,0,0,0,2.819.657,6.254,6.254,0,0,0,.7-.039c2.3-.26,3.9-1.449,5.733-3.283.188-.192.388-.4.646-.675a1.023,1.023,0,0,1,.536-.413,1.1,1.1,0,0,1,.349-.056,1.188,1.188,0,0,1,.973.507,1.083,1.083,0,0,1,.184.713,7.338,7.338,0,0,1-2.439,4.668,10.684,10.684,0,0,1-2.517,1.753A10.487,10.487,0,0,1,32.949,55,10.3,10.3,0,0,1,31.1,55.163ZM34.025,38.6h0a10.057,10.057,0,0,1-3.583-.722,18.1,18.1,0,0,1-4.214-2.389,1.617,1.617,0,0,1-.588-.934,1.934,1.934,0,0,1,.083-1.049,2.387,2.387,0,0,1,.709-1.025,1.728,1.728,0,0,1,1.106-.431,1.57,1.57,0,0,1,.855.262l.285.22,0,0c1.464,1.131,3.677,2.84,5.8,2.84a3.464,3.464,0,0,0,2.58-1.143,3.809,3.809,0,0,0,.724-3.069c-.49-2.386-3.087-4.125-3.871-4.6a.722.722,0,0,1-.2-.83,1.075,1.075,0,0,1,1.048-.744,1.468,1.468,0,0,1,.247.022A7.822,7.822,0,0,1,37.762,26a6.234,6.234,0,0,1,1.849,1.7,6.761,6.761,0,0,1,1.181,4.52,7.215,7.215,0,0,1-1.967,4.411A6.516,6.516,0,0,1,34.025,38.6ZM10.708,22.431A2.4,2.4,0,0,1,8.383,20.3a17.267,17.267,0,0,1,.092-4.5c.054-.437.111-.89.15-1.377A2.693,2.693,0,0,1,9.647,12.5a3.15,3.15,0,0,1,1.937-.68,2.388,2.388,0,0,1,1.464.46,2.169,2.169,0,0,1,.809,1.438A12.065,12.065,0,0,1,12.6,21.156,2.084,2.084,0,0,1,10.708,22.431Zm34.225-1.021a2.056,2.056,0,0,1-1.611-.69,6.93,6.93,0,0,1-1.485-3.677A4.257,4.257,0,0,1,43,13.387a2.411,2.411,0,0,1,.186-.284,2.634,2.634,0,0,1,2.026-1.165,2.2,2.2,0,0,1,.615.091,2.963,2.963,0,0,1,1.98,1.726,6.1,6.1,0,0,1,.245,3.338,11.166,11.166,0,0,1-1.013,3.149,2.045,2.045,0,0,1-.876.864A2.655,2.655,0,0,1,44.934,21.411ZM.379,10.687A.373.373,0,0,1,.067,10.5a.416.416,0,0,1-.025-.409A14.188,14.188,0,0,1,3.226,6.061,19.684,19.684,0,0,1,7.487,3.153a18.335,18.335,0,0,1,5.06-1.764l.54-.094A13.178,13.178,0,0,1,15.3,1.056a3.414,3.414,0,0,1,2.725,1.015,2.311,2.311,0,0,1,.547,1.643,1.5,1.5,0,0,1-.547,1.074,4.2,4.2,0,0,1-2.877.843c-.227,0-.461-.006-.688-.011h-.008c-.218-.005-.465-.012-.71-.012-.226,0-.427.005-.616.016a19.472,19.472,0,0,0-4.283.729,29.112,29.112,0,0,0-8.26,4.269A.355.355,0,0,1,.379,10.687ZM52.49,8.509h0l-.228-.057a12.9,12.9,0,0,1-2.5-.974l-.811-.4a22.548,22.548,0,0,0-2.9-1.234,34.223,34.223,0,0,0-6.6-1.456,2.7,2.7,0,0,1-1.324-.5,1.982,1.982,0,0,1-.741-1.127,2.015,2.015,0,0,1,.228-1.689,2.153,2.153,0,0,1,1.045-.9A2.353,2.353,0,0,1,39.553,0a2.627,2.627,0,0,1,.514.052l.413.085A29.56,29.56,0,0,1,47.61,2.45a14.416,14.416,0,0,1,3.135,2.06,9.145,9.145,0,0,1,2.216,2.862c.078.6.006.746-.075.846l-.023.029-.02.028a.573.573,0,0,1-.354.235Z"/>
  </g>
</svg>
