<svg id="Person" xmlns="http://www.w3.org/2000/svg" width="142.876" height="255.403" viewBox="0 0 242.876 355.403">
  <g id="BODY" transform="translate(0 133.264)">
    <path id="_Cup" data-name="â˜•ï¸ Cup" d="M0,0H70.958V87.378H0Z" transform="translate(135.409 91.406)" fill="#7b72db"/>
    <g id="_Skin" data-name="âœ‹ Skin" transform="translate(1.55 0)">
      <path id="_Skin-2" data-name="âœ‹ Skin" d="M42.808,222.139h0a2.347,2.347,0,0,1-1.84-.806,3.053,3.053,0,0,1-.619-2.428c.315-2.084.62-4.2.915-6.253v-.011c.163-1.13.331-2.3.5-3.449a77.239,77.239,0,0,1-19.643,2.7,60.819,60.819,0,0,1-8.373-.568,54.208,54.208,0,0,1-8.237-1.8c-.129-.131-.177-.239-.143-.319.059-.14.355-.205.933-.205.216,0,.441.008.673.018l.054,0c.2.008.386.016.538.016a1.25,1.25,0,0,0,.308-.024,16.181,16.181,0,0,1-5.3-5.955,19.74,19.74,0,0,1-1.44-3.62,26.643,26.643,0,0,1-.809-3.915,46.256,46.256,0,0,1-.247-8.312c.135-2.812.428-5.6.71-8.288v0c.156-1.488.3-2.893.42-4.255C2.2,168.264,3.1,161.623,3.975,155.2V155.2c2.231-16.4,4.538-33.361,8.68-49.506a164.706,164.706,0,0,1,7.827-23.571c1.646-3.882,3.456-7.637,5.379-11.159a111.643,111.643,0,0,1,6.582-10.616,76.539,76.539,0,0,1,8.343-9.477,69.95,69.95,0,0,1,9.86-7.916,61.092,61.092,0,0,1,11.145-5.843,53.738,53.738,0,0,1,12.2-3.259l.468-.064c.808-.108,1.649-.206,2.463-.3,4.263-.5,8.67-1.009,12.274-3.251A27.213,27.213,0,0,0,93.9,24.872a26.807,26.807,0,0,1,3.3-3.966,7.374,7.374,0,0,1,1.851-1.268,5.182,5.182,0,0,1,2.153-.493h.026a4.114,4.114,0,0,1,1.911.627c.695.381,1.439.894,2.226,1.437.736.508,1.5,1.033,2.278,1.491a17.431,17.431,0,0,1,1.3-5.067,17.522,17.522,0,0,0,.981-3.268l.031-.211c.075-.549.117-1.092.157-1.617.173-2.248.335-4.371,3.047-6.6A21.262,21.262,0,0,1,117.416,3.5a37.192,37.192,0,0,1,5.4-1.875,48.082,48.082,0,0,1,6.049-1.2A46.917,46.917,0,0,1,135.073,0a33.356,33.356,0,0,1,7.3.74,16.748,16.748,0,0,1,5.8,2.365,19.752,19.752,0,0,1,3.75,3.4,22.88,22.88,0,0,1,2.686,3.935,57.292,57.292,0,0,1,3.636,8.877c.79,2.277,1.607,4.632,2.628,6.909a6.215,6.215,0,0,1,2.667-.547A9.983,9.983,0,0,1,168.353,27a6.11,6.11,0,0,1,2.951,3.235c.744.905,1.074,2.77,1.393,4.573a17.6,17.6,0,0,0,.818,3.423c2.358.375,4.646.851,6.8,1.415a58.683,58.683,0,0,1,6.085,1.942,50.218,50.218,0,0,1,5.416,2.441,45.138,45.138,0,0,1,4.793,2.91,42.973,42.973,0,0,1,4.215,3.351,43.476,43.476,0,0,1,3.684,3.763,46.617,46.617,0,0,1,3.2,4.146,52.552,52.552,0,0,1,2.758,4.5,66.919,66.919,0,0,1,4.379,9.948,104.3,104.3,0,0,1,3.168,11.019c1.7,7.279,2.9,14.989,4.167,24.326,1.7,9.567,4.033,19.3,6.293,28.707v0c1.466,6.1,2.982,12.418,4.314,18.645,1.495,6.986,2.592,13.114,3.355,18.733a147.162,147.162,0,0,1,1.426,18.861c.023,3.222-.082,6.416-.314,9.492-.243,3.227-.634,6.436-1.16,9.539a20.177,20.177,0,0,1,1.969,3.538,3.7,3.7,0,0,1-.048,3.7A3.405,3.405,0,0,1,235.065,221h0c-.05,0-.1,0-.153,0-1.007-.089-2.026-.188-3.012-.283h0c-2.5-.243-5.094-.495-7.666-.591-5.217-.181-10.835-.269-17.175-.269-3.7,0-7.713.029-12.64.092l-1.355.018c-20.106.25-40.542.6-60.3.946C103.275,221.417,72.792,221.944,42.808,222.139ZM152.553,109.892h0c-.687,2.962.421,5.371,1.594,7.922A27.291,27.291,0,0,1,155.793,122a13.822,13.822,0,0,1,.079,3.969c-.038.564-.075,1.1-.079,1.53a7.724,7.724,0,0,0,.926,2.63,5.9,5.9,0,0,1,.92,3.342,29.863,29.863,0,0,1-2.827,7.333,34.627,34.627,0,0,0-2.555,6.208,10.949,10.949,0,0,0-.384,3.085,8.2,8.2,0,0,0,.681,3.076c1.859,3.658,7.461,5.532,11.169,6.772l.019.006a16.356,16.356,0,0,0,3.253.852,23.013,23.013,0,0,0,3.637.277,29.661,29.661,0,0,0,10.824-2.1,21.894,21.894,0,0,0,4.606-2.486,13.331,13.331,0,0,0,3.321-3.32c1.5-2.226,3.169-6.646,4.513-10.2v0c.826-2.184,1.54-4.069,2.073-5.109l.316-4.413c.368-5.182.758-11.1.729-15.712-.032-5.126-.572-7.982-1.65-8.731-5.482-3.809-15.349-4.608-22.66-4.608-4.666,0-8.761.313-11.375.575a34.5,34.5,0,0,0-5.117.736c-.373.245-.688.43-.966.593a4.271,4.271,0,0,0-1.793,1.6c-.739.1-1.493.2-2.24.308-.5.163-.756.5-.693.9a1.018,1.018,0,0,0,.411.632,1.476,1.476,0,0,0,.9.283,2.036,2.036,0,0,0,.722-.14Z" transform="translate(0 0)" fill="#d08b5b"/>
    </g>
    <g id="_Top" data-name="ðŸ‘• Top" transform="translate(1.55 19.164)">
      <path id="_Top-2" data-name="ðŸ‘• Top" d="M42.8,202.975a2.347,2.347,0,0,1-1.84-.806,3.053,3.053,0,0,1-.619-2.428c.315-2.089.62-4.207.915-6.256l.007-.05c.161-1.117.327-2.271.493-3.407a77.24,77.24,0,0,1-19.643,2.7,60.821,60.821,0,0,1-8.373-.568,54.211,54.211,0,0,1-8.237-1.8c-.129-.131-.177-.239-.143-.319.059-.14.355-.206.933-.206.216,0,.441.008.673.018l.054,0c.2.008.387.016.538.016a1.25,1.25,0,0,0,.308-.024,16.181,16.181,0,0,1-5.3-5.955,19.74,19.74,0,0,1-1.44-3.62,26.639,26.639,0,0,1-.809-3.915,46.256,46.256,0,0,1-.247-8.312c.135-2.812.428-5.6.71-8.288.156-1.489.3-2.9.421-4.26C2.2,149.1,3.1,142.459,3.975,136.037v-.005c2.231-16.4,4.538-33.361,8.68-49.506a164.707,164.707,0,0,1,7.827-23.571c1.646-3.882,3.456-7.637,5.379-11.159a111.643,111.643,0,0,1,6.582-10.616A76.539,76.539,0,0,1,40.785,31.7a69.95,69.95,0,0,1,9.86-7.916,61.092,61.092,0,0,1,11.145-5.843,53.738,53.738,0,0,1,12.2-3.259l.468-.064.471-.061c.657-.084,1.336-.163,1.992-.239,4.262-.5,8.669-1.009,12.273-3.251A27.215,27.215,0,0,0,93.9,5.708a28.323,28.323,0,0,1,3.15-3.828A7.886,7.886,0,0,1,98.8.6,5.252,5.252,0,0,1,100.81,0l3.076,1.888,17.866,8.831a14.045,14.045,0,0,1,3.9,1.6,2.4,2.4,0,0,1,1.3,1.888V28c0,.919.82,2.44,2.438,4.522a93.66,93.66,0,0,0,7.313,8.029l6.006-5.987-.134-.784A51.248,51.248,0,0,1,141.713,27c0-.305.371-.832,1.1-1.564a40.382,40.382,0,0,1,3.3-2.851c2.924-2.319,7.372-5.536,13.22-9.562l5.141-4.84-.548-1.667a9.568,9.568,0,0,1,2.382.43,10.093,10.093,0,0,1,2.206.983,6.015,6.015,0,0,1,2.784,3.137c.744.905,1.074,2.77,1.393,4.573a17.6,17.6,0,0,0,.818,3.423c2.358.375,4.646.851,6.8,1.415a58.683,58.683,0,0,1,6.085,1.942,50.219,50.219,0,0,1,5.416,2.441,45.137,45.137,0,0,1,4.793,2.91,42.973,42.973,0,0,1,4.215,3.351,43.475,43.475,0,0,1,3.684,3.763,46.617,46.617,0,0,1,3.2,4.146,52.552,52.552,0,0,1,2.758,4.5,66.92,66.92,0,0,1,4.379,9.948A104.3,104.3,0,0,1,218.009,64.5c1.7,7.279,2.9,14.989,4.167,24.326,1.7,9.567,4.033,19.3,6.293,28.707v0c1.466,6.105,2.982,12.418,4.314,18.645,1.495,6.986,2.592,13.114,3.355,18.733a147.162,147.162,0,0,1,1.426,18.861c.023,3.222-.082,6.416-.314,9.492-.243,3.227-.634,6.436-1.16,9.539a20.175,20.175,0,0,1,1.969,3.538,3.7,3.7,0,0,1-.048,3.7,3.405,3.405,0,0,1-2.946,1.794h0c-.05,0-.1,0-.153,0-1-.088-2.021-.187-3-.283H231.9c-2.506-.244-5.1-.5-7.669-.591-5.219-.181-10.837-.269-17.176-.269-3.7,0-7.712.029-12.639.092l-1.355.018c-20.1.25-40.534.6-60.3.945h-.007c-29.479.51-59.962,1.037-89.946,1.232Zm50.951-81.736-2.486,18.034,5.979,12.877,13.542-4.561,22.065-5.816,12.661-12.845,7.142-2.4a13.139,13.139,0,0,0-.781,3.746,8.31,8.31,0,0,0,.677,3.733c1.859,3.658,7.461,5.532,11.169,6.772l.019.006a16.36,16.36,0,0,0,3.253.852,23.012,23.012,0,0,0,3.637.277,29.663,29.663,0,0,0,10.824-2.1,21.894,21.894,0,0,0,4.606-2.486,13.329,13.329,0,0,0,3.321-3.32c1.5-2.226,3.169-6.646,4.513-10.2v0c.826-2.184,1.54-4.069,2.073-5.109l.409-5.733c.363-5.207.69-10.62.631-14.931-.066-4.79-.6-7.47-1.644-8.193-5.482-3.809-15.349-4.608-22.66-4.608-4.666,0-8.761.313-11.375.575a34.5,34.5,0,0,0-5.117.736c-.373.245-.688.43-.966.593a4.271,4.271,0,0,0-1.793,1.6l-.392.052,2.2-2.989-.78-.417c-2.771-1.469-5.09-2.587-6.892-3.321a12.22,12.22,0,0,0-3.972-1.107c-.872,0-2.22.687-4.006,2.041a69.91,69.91,0,0,0-6.76,6.122l-.478.221a84.994,84.994,0,0,0-8.177,4.267,24.255,24.255,0,0,0-4.857,3.661l-.076.081c-2.143,2.3-6.446,8.5-12.789,18.424l-9.23,5.458Zm61.871-18.967-3.336-6.387V90.811a2.267,2.267,0,0,0,.265-.083c-.687,2.962.421,5.372,1.593,7.923a30.878,30.878,0,0,1,1.479,3.622Z" transform="translate(0 0)" fill="#a8a8a8"/>
    </g>
    <path id="_Ink" data-name="ðŸ– Ink" d="M44.955,213.019a2.254,2.254,0,0,1-1.042-.255l-.075-.041-.126-.072a2.525,2.525,0,0,1-1.016-1.18,2.092,2.092,0,0,1-.093-1.543,34.7,34.7,0,0,0,1.1-3.954c.273-1.152.554-2.343.937-3.482l-.649.29-.856.373a84.648,84.648,0,0,1-10.751,3.94,41.325,41.325,0,0,1-11.228,1.694,29.3,29.3,0,0,1-7.65-.988,20.066,20.066,0,0,1-6.262-2.851,14.567,14.567,0,0,1-4.591-5.065C.449,195.765.151,191.008.035,186.487a107.588,107.588,0,0,1,.9-16.891A102.578,102.578,0,0,1,2.96,158.348a2.779,2.779,0,0,1-.921-1.773,32.811,32.811,0,0,1,.512-8.73v-.008c.1-.653.2-1.329.284-1.986.487-3.648.99-7.008,1.537-10.273,1.191-7.107,2.558-14.036,4.063-20.6,1.37-5.971,2.994-12.036,4.826-18.026,1.791-5.856,3.829-11.795,6.057-17.651l.388-1.013c2.3-5.99,4.518-11.116,6.769-15.671a108.827,108.827,0,0,1,8.646-14.7,66.343,66.343,0,0,1,4.983-6.337,37.992,37.992,0,0,1,5.96-5.4,51.6,51.6,0,0,1,13.742-6.849,74.628,74.628,0,0,1,7.392-2.1c2.423-.556,4.966-1.017,7.56-1.37.769-.1,1.557-.2,2.319-.3C81.514,25,86.1,24.415,90.2,22.611a2.253,2.253,0,0,1-.144-1.779,2.756,2.756,0,0,1,1.084-1.468,77.134,77.134,0,0,0,8.528-6.911c.4-.354.808-.721,1.215-1.081a.9.9,0,0,1,.6-.237.911.911,0,0,1,.766.435.844.844,0,0,1,0,.858,34.987,34.987,0,0,1-3.569,5.649c-.886,1.1-1.832,2.129-2.722,3.081a52.4,52.4,0,0,1,6.29,6.929l.119.147c.6.749,1.2,1.514,1.786,2.255A80.636,80.636,0,0,0,110,37.38a25.066,25.066,0,0,0,4.393,3.58,24.517,24.517,0,0,0,5.089,2.463l.744.258a29.505,29.505,0,0,1,5.474,2.451,12.032,12.032,0,0,1,4.264,4.1.767.767,0,0,1,0,.789.851.851,0,0,1-.717.44.745.745,0,0,1-.4-.116,27.739,27.739,0,0,0-7.458-2.837c-1.444-.395-2.937-.8-4.366-1.34a28.124,28.124,0,0,1-5.361-2.706,31.71,31.71,0,0,1-4.7-3.742,80.808,80.808,0,0,1-6.649-7.527l-.027-.033c-.418-.515-.851-1.048-1.279-1.57a68.657,68.657,0,0,0-8.27-8.349,31.674,31.674,0,0,1-7.367,3.57c-2.486.865-5.06,1.522-7.925,2.232l-.587.145c-3.138.777-5.685,1.485-8.016,2.23a67.936,67.936,0,0,0-7.767,2.97,46.96,46.96,0,0,0-12.456,7.816c-3.964,3.638-7.027,8.337-9.587,12.456a120.027,120.027,0,0,0-8,15.412c-2.046,4.68-4.03,9.833-6.244,16.218a327.888,327.888,0,0,0-9.917,34.748c-1.311,5.779-2.411,11.686-3.362,18.058-.431,2.884-.822,5.837-1.163,8.777-.088.758-.161,1.536-.231,2.287v.006a33.491,33.491,0,0,1-1.175,7.069,2.618,2.618,0,0,1-.92,1.356,2.213,2.213,0,0,1-1.324.426l-.114,0-.2,2.472c-.252,3.17-.505,6.547-.589,9.91-.15,6.031-.044,11.433.322,16.516l.056.75a30.33,30.33,0,0,0,1,6.138,11.917,11.917,0,0,0,3.03,5.331c3.355,3.267,8.461,4.011,12.153,4.059l.4,0a41.553,41.553,0,0,0,13.618-2.584,133.412,133.412,0,0,0,12.868-5.5l1.074-.5c4.4-2.059,8.852-4.288,13.243-6.624,4.276-2.275,8.618-4.72,12.9-7.265s8.6-5.219,12.831-7.957c2.056-1.33,4.134-2.707,6.175-4.091.408-.276.814-.567,1.207-.847h0c.731-.522,1.486-1.062,2.263-1.52a1.914,1.914,0,0,1-.58-1,1.5,1.5,0,0,1,.225-1.148,11.735,11.735,0,0,1-2.218-2.629,16.537,16.537,0,0,1-1.534-3.193,23.1,23.1,0,0,1-1.294-6.818,56.566,56.566,0,0,1,.608-8.963c.058-.474.117-.963.174-1.447.21-1.793.47-3.564.718-5.21.044-.289.083-.588.121-.877.055-.413.111-.84.182-1.262-4.6,2.527-9.358,4.967-14.144,7.252-4.722,2.255-9.611,4.425-14.53,6.452-4.867,2.005-9.868,3.851-15.29,5.644l-1.047.344c-2.963.97-5.251,1.671-7.42,2.273-2.736.759-5.2,1.335-7.544,1.758a.257.257,0,0,1-.046,0,.307.307,0,0,1-.286-.241.2.2,0,0,1,.131-.241c3.273-1.444,6.674-2.759,9.964-4.03,1.666-.644,3.389-1.31,5.073-1.984l.822-.335a1.648,1.648,0,0,1-.295-.043c-2.077-.5-4.169-1.2-6.192-1.883l-.005,0c-.83-.279-1.688-.567-2.528-.835s-1.728-.509-2.588-.743a28.538,28.538,0,0,1-5.582-1.934.175.175,0,0,1-.1-.2.227.227,0,0,1,.2-.18c.281-.019.576-.029.876-.029a30.828,30.828,0,0,1,5.84.775c.654.129,1.272.251,1.889.359l1.034.181c1.584.279,3.425.615,5.225,1.062a2.208,2.208,0,0,1,.844-1.5c4.2-3.11,4.551-8.845,4.862-13.906v0c.064-1.037.124-2.016.215-2.954l.4-4.135c.679-6.98,1.438-14.4,2.582-21.655A.276.276,0,0,1,56,103.8a.353.353,0,0,1,.367.329c.04,6.1-.268,12.284-.566,18.265-.137,2.748-.279,5.59-.385,8.391l-.052,1.458-.008.23c-.183,5.413-.373,11.01-3.779,15.172a1.4,1.4,0,0,1,.7-.193,1.065,1.065,0,0,1,.831.376,2.848,2.848,0,0,1,.75,1.846c3.006-1.26,6.143-2.613,9.323-4.022,9.641-4.271,19.451-9.207,29.158-14.67a1.808,1.808,0,0,1,2.494.634l.073-.011.037,0,.072,0h.008a2.864,2.864,0,0,1,1.4-.341,4.389,4.389,0,0,1,2.9,1.2c.028.027.053.056.075.082l.017.02a15.376,15.376,0,0,0,4.031-2.643,32.37,32.37,0,0,0,3.5-3.755c.982-1.222,1.964-2.584,3-4.165.851-1.295,1.683-2.648,2.489-3.957h0c1.221-1.985,2.484-4.038,3.853-5.96a34.519,34.519,0,0,1,4.6-5.352,27.6,27.6,0,0,1,6.218-4.3,37.9,37.9,0,0,1,7.064-2.708.482.482,0,0,1,.132-.4.681.681,0,0,1,.468-.267.666.666,0,0,1,.286.077.116.116,0,0,1,.052.049l.476-.813c.346-.588.543-.907.619-1,.55-.693,1.123-1.388,1.7-2.067a14.688,14.688,0,0,1,3.395-3.075,6.428,6.428,0,0,1,3.463-.958,17.392,17.392,0,0,1,5.228,1.141l.04.013c1.151.376,2.315.765,3.44,1.141l.042.014,1.792.6.181.059.339.107a9.441,9.441,0,0,1,1.8.7,2.749,2.749,0,0,1,1.448,3.042,59.334,59.334,0,0,1,14.6-1.737,76.286,76.286,0,0,1,12.128,1.006,88.431,88.431,0,0,1,11.706,2.737,1.47,1.47,0,0,1,1.03,1.03,88.687,88.687,0,0,1,1.449,10.815,70.55,70.55,0,0,1-.067,10.907,61.609,61.609,0,0,1-1.5,9.272,50.107,50.107,0,0,1-3.052,8.876l-.149.324a38.87,38.87,0,0,1-4.845,8.139,19.3,19.3,0,0,1-3.376,3.33,12.4,12.4,0,0,1-4.089,2.071,17.549,17.549,0,0,1-4.809.571c-1.408,0-2.84-.1-4.224-.2-.727-.052-1.478-.105-2.2-.142-.8-.04-1.62-.073-2.412-.106h0a71.967,71.967,0,0,1-8.32-.66,13.264,13.264,0,0,1-4.37-1.46,11.077,11.077,0,0,1-3.47-3,21.618,21.618,0,0,1-3.281-7.52c-.381.121-.693.23-.983.344a10.814,10.814,0,0,0-3.569,2.407c-1,.968-1.913,2.048-2.8,3.092a34.853,34.853,0,0,1-3.438,3.686,26.392,26.392,0,0,1-7.034,4.39,46.089,46.089,0,0,1-6.7,2.243c-2.276.593-4.623,1.077-6.893,1.546l-.021,0c-.977.2-1.986.41-2.977.625l-.391.085c-4.16.913-8.523,2.06-12.251,4.26a2.537,2.537,0,0,1-.84,1.654,2.112,2.112,0,0,1,.642,1.143,1.9,1.9,0,0,1-.284,1.368c-1.349,2.14-3.531,3.521-5.642,4.856l0,0c-.409.258-.831.526-1.238.793l-.162.107c-2.441,1.618-4.938,3.227-7.421,4.781-4.863,3.045-9.933,6-15.5,9.043-4.321,2.36-8.627,4.616-12.8,6.705-4.4,2.2-8.787,4.289-13.052,6.206a29,29,0,0,1,.434,4.329,35.513,35.513,0,0,0,.3,3.548l.061.372a2.532,2.532,0,0,1-.727,2.412l-.071.065v-.009l-.063.057-.021.018.007-.006a2.252,2.252,0,0,1-.237.192l-.1.066A2.088,2.088,0,0,1,44.955,213.019Zm50.363-77.655c0,.215,0,.436,0,.631,0,.317,0,.616.01.914.036,1.353.054,2.8.054,4.288,0,1.082-.021,2.18-.041,3.241v0c-.036,1.881-.074,3.826.006,5.737a25.579,25.579,0,0,0,.443,3.993,13.551,13.551,0,0,0,1.312,3.782,10.184,10.184,0,0,0,1.616,2.23,15.223,15.223,0,0,0,2.03,1.75,32.99,32.99,0,0,1,5.784-2.753,55.783,55.783,0,0,1,6.188-1.849c1.653-.4,3.348-.767,4.987-1.12h0a93.356,93.356,0,0,0,10.222-2.609,26.891,26.891,0,0,0,6.753-3.29,28.26,28.26,0,0,0,5.2-5.093l.018-.021.407-.473.27-.312a18.32,18.32,0,0,1,6.195-5.066,19.053,19.053,0,0,1,2.678-.861,11.684,11.684,0,0,0,4.19-1.719,3.741,3.741,0,0,0,1.163-2.951l.006-.066a5.77,5.77,0,0,1-.823.055,14.934,14.934,0,0,1-2.05-.192h0c-.265-.037-.538-.075-.8-.106l-.622-.073a25.267,25.267,0,0,1-3.362-.572.22.22,0,0,1,0-.42,27.987,27.987,0,0,1,3.822-.626l.163-.019.318-.04.471-.064h0a15.116,15.116,0,0,1,2.052-.19,5.392,5.392,0,0,1,1.191.121,10.155,10.155,0,0,1,.964-2.388c.185-.333.418-.675.664-1.038h0a6.418,6.418,0,0,0,1.266-2.6,2.1,2.1,0,0,0-.224-1.178l-.062-.116a.98.98,0,0,0-.3-.36.255.255,0,0,1-.113.057,1.817,1.817,0,0,1-2.16-.859,34.2,34.2,0,0,1-3.7.183c-.632.009-1.23.017-1.806.042l-1.724.083c-.567.026-1.314.056-2.061.056a16.222,16.222,0,0,1-3.437-.307.308.308,0,0,1-.22-.279.262.262,0,0,1,.147-.278,24.863,24.863,0,0,1,6.073-1.413h0c.3-.044.611-.09.91-.136.846-.13,1.711-.241,2.547-.349h0l.02,0c.414-.053.841-.108,1.261-.165.272-.037.555-.082.828-.126h0a17.138,17.138,0,0,1,1.8-.223A5.093,5.093,0,0,0,156.9,117.9a5.678,5.678,0,0,0-.112-2.465,5.535,5.535,0,0,0-1.083-2.1,4.649,4.649,0,0,0-1.907-1.379,3.385,3.385,0,0,1-1.408.279,10.068,10.068,0,0,1-1.2-.1h0c-.236-.029-.479-.058-.731-.08-1.359-.116-2.484-.171-3.54-.171h-.129a30.393,30.393,0,0,0-3.042.223,29.981,29.981,0,0,1-3.141.225,11.4,11.4,0,0,1-1.3-.069.648.648,0,0,1-.519-.439.411.411,0,0,1,.15-.454,9.174,9.174,0,0,1,3.257-1.617,24.742,24.742,0,0,1,3.633-.721l.49-.066c.214-.028.443-.06.665-.091h0c.635-.088,1.354-.188,2.087-.255a1.569,1.569,0,0,1,1.24-.856c.164-.022.33-.037.491-.05l.054,0,0-.018a1.1,1.1,0,0,0,.912-.55,3.874,3.874,0,0,0,.1-2.991,3.407,3.407,0,0,0-2.215-1.846,10.159,10.159,0,0,0-3.163-.422c-.466,0-.949.018-1.518.056a40.954,40.954,0,0,0-15.93,4.224,23.961,23.961,0,0,0-6.365,4.929,44.8,44.8,0,0,0-4.892,6.433l-.139.216c-.479.744-.965,1.529-1.436,2.287l0,0c-1.215,1.959-2.472,3.984-3.9,5.838a21.773,21.773,0,0,1-4.916,4.836,23.131,23.131,0,0,1-7.833,3.651,1.437,1.437,0,0,1-.916.706l-.19.044a11.928,11.928,0,0,1-2.423.291A6.464,6.464,0,0,1,95.319,135.364ZM50.2,151.071a1.216,1.216,0,0,1-.086.116l-.047.055.244-.1ZM167.161,98.277c-2.748,0-5.546.074-8.177.15a4.458,4.458,0,0,1-1.523,2.14,4.189,4.189,0,0,1-2.415.95,7.078,7.078,0,0,1,1.111,3.395,7.479,7.479,0,0,1-.579,3.486,9.3,9.3,0,0,1,2.7,1.643,8.645,8.645,0,0,1,2,2.56,8.946,8.946,0,0,1,.775,2.133,8.723,8.723,0,0,1,.206,2.172,9.263,9.263,0,0,1-1.151,4.147,5.611,5.611,0,0,1,1.4,2.051,6,6,0,0,1,.444,2.486,9.573,9.573,0,0,1-1.785,4.457c-.109.178-.221.362-.328.542a9.737,9.737,0,0,0-1.186,3.993c-.046.326-.094.663-.152,1.014a6.394,6.394,0,0,1-1.611,3.352,8.963,8.963,0,0,1-3.056,2.078l.126.5a25.166,25.166,0,0,0,1.135,3.559,9.46,9.46,0,0,0,1.988,3.079c2.083,2.075,5.25,2.212,8.045,2.332l.669.03.143.007c2.218.111,4.472.239,6.652.364h.021l1.492.085,2.041.114c.64.035,1.395.071,2.137.071a13.342,13.342,0,0,0,3.426-.377,8.162,8.162,0,0,0,3.137-1.573c4.409-3.57,7.247-9.546,8.851-13.93,3.392-9.272,4.1-20.253,2.1-32.636a90.492,90.492,0,0,0-18.044-3.872A97.96,97.96,0,0,0,167.161,98.277Zm-20.815-.543a15.225,15.225,0,0,1,3.719.417,8.962,8.962,0,0,1,3.234,1.5l.011-.02c0-.009.01-.02.017-.03a8.157,8.157,0,0,1,1.027-1.2l.012-.013c.035-.033.07-.068.107-.107l.207-.221-.474-.164c-.722-.255-1.532-.561-2.016-.743l-.391-.146-.013,0-.661-.223c-1.055-.357-2.147-.725-3.216-1.1-.191-.068-.379-.138-.577-.213a7.758,7.758,0,0,0-2.65-.658,3.3,3.3,0,0,0-.526.041,6.262,6.262,0,0,0-2.489,1.1,24.387,24.387,0,0,0-2.273,1.839c-.4.349-.774.679-1.145.98l.875-.17A38.956,38.956,0,0,1,146.346,97.735Zm59.072,114.992a.939.939,0,0,1-.584-.2.855.855,0,0,1-.317-.594l-.139-1.342a22.73,22.73,0,0,0-.96-5.01,27.639,27.639,0,0,1-1.222-5.925c-.359-3.172-.518-6.426-.651-9.486l-.094-2.19c-.3-6.843-.422-13.531-.375-19.877.051-6.813.3-13.5.75-19.867l.068-.944c.281-3.826.556-6.756.89-9.5.428-3.514.948-6.629,1.591-9.521a52.251,52.251,0,0,1,7.072-17.679.231.231,0,0,1,.2-.109.242.242,0,0,1,.19.091.226.226,0,0,1,.039.2c-1.608,6.586-3.24,13.662-4.286,20.79-.411,2.8-.726,5.667-.963,8.764-.211,2.758-.354,5.637-.438,8.8-.156,5.874-.078,11.853,0,17.635l0,.134c.012.951.025,1.934.037,2.9l.008.66c.069,6.1.173,13.316.414,20.6.028.846.063,1.7.1,2.518.106,2.6.216,5.293.122,7.927a23.53,23.53,0,0,1-.4,3.166c-.133.768-.271,1.562-.347,2.359a27.5,27.5,0,0,0,.017,4.074c.014.259.03.551.043.834a.752.752,0,0,1-.189.571A.767.767,0,0,1,205.418,212.727Zm34.215-.574a2.765,2.765,0,0,1-2-.815,1.983,1.983,0,0,1-.537-1.523,206.4,206.4,0,0,0,.514-22.866c-.343-7.552-1.062-15.238-2.134-22.844-.667-4.727-1.591-9.489-2.485-14.094-.3-1.527-.633-3.259-.943-4.916l-.186-1c-.928-5.026-1.9-10.131-2.838-15.069l0-.009-.2-1.062-1.528-8.053c-2.087-10.989-4.542-23.747-7.264-36.106l-.156-.7C217.6,72.93,213.933,60.022,205.74,50.338c-7.918-9.359-19.2-14-30.1-18.494a.4.4,0,0,1-.251-.454.341.341,0,0,1,.343-.288.474.474,0,0,1,.109.013l.884.211c6.157,1.475,12.687,3.162,18.874,6.116a40.665,40.665,0,0,1,8.359,5.344,44.085,44.085,0,0,1,6.875,7.154,60.681,60.681,0,0,1,8.886,16.839,140.1,140.1,0,0,1,4.9,18.494c1.376,6.632,2.713,13.382,4.007,19.91v.007c1.419,7.16,2.887,14.563,4.407,21.83l.54,2.588c1.616,7.771,2.806,13.766,3.859,19.436,1.315,7.083,2.376,13.478,3.244,19.551l.135.95a201.387,201.387,0,0,1,1.962,20.438,107.506,107.506,0,0,1-1,20.464,1.9,1.9,0,0,1-.762,1.293A2.345,2.345,0,0,1,239.633,212.152ZM146.275,200.78a1.473,1.473,0,0,1-1.409-1.007,17.064,17.064,0,0,1-.665-5.009c-.008-1.728.142-3.468.287-5.15.043-.495.083-.962.12-1.433l.224-2.887c.2-2.589.426-5.643.6-8.664.232-3.994.427-8.064.6-11.867.057-1.223.119-2.484.191-3.855l.1-1.927c.012-.212.022-.429.032-.64a11.642,11.642,0,0,1,.719-4.231.527.527,0,0,1,.5-.3.623.623,0,0,1,.551.3,11.726,11.726,0,0,1,.992,4.509q.022.254.043.494l.016.171c.231,2.439.374,4.316.465,6.086.2,3.859.291,7.749.279,11.563-.014,4.433-.114,8.311-.305,11.854l-.058,1.058a45.84,45.84,0,0,1-.537,5.292,16.171,16.171,0,0,1-1.614,4.968A1.261,1.261,0,0,1,146.275,200.78ZM12.57,173.292a.163.163,0,0,1-.049-.008,1.453,1.453,0,0,1-.951-.75,2.447,2.447,0,0,1,.215-1.937,26.774,26.774,0,0,1,3.668-5.56l.024-.031.4-.513a51.16,51.16,0,0,1,4.735-5.266l.5-.481c.191-.186.385-.383.59-.59l.007-.007a18.842,18.842,0,0,1,2.268-2.054,4.565,4.565,0,0,1,2.654-1.011c.067,0,.135,0,.2.006a1.358,1.358,0,0,1,1.288,1.691c-.312,1.48-1.553,2.4-2.754,3.289-.343.254-.666.493-.971.747-1.531,1.273-2.953,2.613-4.4,3.989-1.238,1.18-2.445,2.4-3.69,3.745l-.446.484c-.076.083-.236.24-.44.439l0,0c-.966.945-2.975,2.91-2.7,3.5l.018.032a.168.168,0,0,1,.005.177A.2.2,0,0,1,12.57,173.292Zm117.73-38.32a2.8,2.8,0,0,1-1.963-.832,4.447,4.447,0,0,1-1.139-1.994,8.249,8.249,0,0,1-.174-2.327,6.683,6.683,0,0,0-.3-2.672,7.667,7.667,0,0,0-.678-1.2,8.039,8.039,0,0,1-.668-1.168,7.7,7.7,0,0,1-.594-2.6,6.643,6.643,0,0,1,.4-2.2,4.106,4.106,0,0,0,.153-3.1.642.642,0,0,1,.027-.613.465.465,0,0,1,.406-.245h.012l.046,0a3.015,3.015,0,0,1,2.486,2.425,14.817,14.817,0,0,1,.3,1.739,7.05,7.05,0,0,0,1.03,3.3,9.61,9.61,0,0,1,1.992,5.063c.021.261.033.526.044.782v0a9.733,9.733,0,0,0,.181,1.737l.137.581a5.445,5.445,0,0,1,.192,1.883,1.386,1.386,0,0,1-.97,1.274A3.045,3.045,0,0,1,130.3,134.972ZM71.416,104.485a23.013,23.013,0,0,1-3.565-.249.294.294,0,0,1-.258-.288.4.4,0,0,1,.258-.413,41.012,41.012,0,0,1,7.183-1.252c.55-.063,1.118-.127,1.673-.2,2.571-.319,5.952-.753,9.309-1.277s6.376-1.038,9.253-1.573c1.381-.257,2.782-.529,4.163-.81.294-.06.59-.135.9-.214a8.986,8.986,0,0,1,2.149-.365,3.067,3.067,0,0,1,1.14.2,1.153,1.153,0,0,1,.716.812.927.927,0,0,1-.273.864,5.285,5.285,0,0,1-3.136,1.188h0c-.217.033-.441.067-.659.105l-.118.021c-1.569.29-3.178.572-4.781.838-3.056.506-6.095.947-9.033,1.31-3.476.43-6.528.752-9.329.983l-1.206.1C74.4,104.381,72.9,104.485,71.416,104.485Zm75.1-14.355a1.087,1.087,0,0,1-.948-.544,25.16,25.16,0,0,1-2.437-6.613c-.3-1.136-.614-2.311-1-3.431-.5-1.461-1.045-2.934-1.571-4.359v0c-.647-1.753-1.316-3.565-1.911-5.368a40.5,40.5,0,0,1-1.62-6.505,25.038,25.038,0,0,1-.2-6.66l-.014-.023a.559.559,0,0,1-.03-.054l-.354-.775a16.832,16.832,0,0,0-3.655-5.6c-.447-.425-.909-.844-1.356-1.25a24.218,24.218,0,0,1-3.906-4.15,9.609,9.609,0,0,1-1.285-2.679,11.266,11.266,0,0,1-.454-2.766,30.027,30.027,0,0,1,.481-5.695c.173-1.169.353-2.378.442-3.563l.043-.615c.078-1.187.071-2.493-.574-3.177a5.547,5.547,0,0,0-2.546-1.087c-.379-.1-.736-.187-1.028-.291a57.188,57.188,0,0,1-7.67-3.309,48.685,48.685,0,0,1-6.728-4.2l-1.071-.806a18.879,18.879,0,0,1-4.576-4.4.275.275,0,0,1,0-.284.283.283,0,0,1,.24-.16.232.232,0,0,1,.087.017,27.019,27.019,0,0,1,4.07,2.236l0,0c.43.269.875.548,1.315.812a2.146,2.146,0,0,1,.1-.2A22.446,22.446,0,0,0,110.681,8.4a23.355,23.355,0,0,0,.418-6.634,1.6,1.6,0,0,1,.386-1.245A1.78,1.78,0,0,1,112.8,0a2.1,2.1,0,0,1,1.306.444,1.832,1.832,0,0,1,.682,1.327,26.187,26.187,0,0,1-3.244,14.721c-.012.022-.025.042-.038.062l-.02.031c1.808.941,3.313,1.666,4.737,2.28,2.21.954,4.266,1.733,6.286,2.383.546.176,1.115.318,1.718.469a10.9,10.9,0,0,1,4.212,1.689c1.425,1.134,2.164,2.861,2.259,5.278a28.65,28.65,0,0,1-.659,6.1l-.006.03c-.041.222-.079.432-.116.639l-.1.578a9.65,9.65,0,0,0,.23,5.63,13.705,13.705,0,0,0,3.714,4.406l.016.014.367.33.31.28a20.461,20.461,0,0,1,3.9,4.414,26.729,26.729,0,0,1,3.008-4.553l.028-.036.42-.552c.756-1,.46-1.462-.029-2.23-.115-.18-.245-.384-.373-.614a6.58,6.58,0,0,1-.7-1.8,5.269,5.269,0,0,1-.062-1.92,5.74,5.74,0,0,1,.551-1.709,7.437,7.437,0,0,1,.994-1.477,13.594,13.594,0,0,1,2.723-2.348,48.146,48.146,0,0,1,4.171-2.45c1.013-.55,2.06-1.118,3.058-1.731a98.729,98.729,0,0,0,13.9-10.21.144.144,0,0,1,.1-.037.162.162,0,0,1,.141.081.124.124,0,0,1-.01.132A54.19,54.19,0,0,1,154.066,33c-1.685,1.3-3.481,2.443-5.218,3.545l-.919.584-.6.385a5.618,5.618,0,0,0-2.263,2.194c-.291.708.119,1.294.514,1.859h0c.123.176.251.359.355.542a5.722,5.722,0,0,1,.673,1.8,4.926,4.926,0,0,1,0,1.738,7.413,7.413,0,0,1-1.6,3.262l-.077.1a15.437,15.437,0,0,0-3.473,6.474,20.361,20.361,0,0,0,0,8.382,53.34,53.34,0,0,0,2.357,8.127l.073.2c.244.68.5,1.371.74,2.039l0,.008,0,0c.759,2.079,1.544,4.23,2.2,6.382l.24.787c.8,2.632,1.437,5.217.552,7.9A1.182,1.182,0,0,1,146.511,90.13Zm9.909-37.541c-.243,0-.491-.009-.737-.027a9.927,9.927,0,0,1-4.164-1.194A9.183,9.183,0,0,1,150.05,50.2c-.938-.85-1.907-1.729-2.98-1.729a1.94,1.94,0,0,0-.6.1.174.174,0,0,1-.053.009.222.222,0,0,1-.2-.152.17.17,0,0,1,.052-.2,2.493,2.493,0,0,1,1.615-.589,7.044,7.044,0,0,1,3.235,1.251,10.6,10.6,0,0,0,1.99.984,7.755,7.755,0,0,0,8.52-2.686,86.466,86.466,0,0,0,5.921-8.642,41.913,41.913,0,0,0,2.472-4.628A15.792,15.792,0,0,0,170.9,31.1a20.413,20.413,0,0,1,.617-2.18,2.108,2.108,0,0,1,.871-1.073,2.417,2.417,0,0,1,1.267-.359,1.99,1.99,0,0,1,1.452.576,1.835,1.835,0,0,1,.461,1.4,14.467,14.467,0,0,1-1.448,4.86l-.19.442-.078.183a34,34,0,0,1-2.674,5.1,64.743,64.743,0,0,1-6.833,8.766A10.646,10.646,0,0,1,156.419,52.589Zm18.019-26.345a1.884,1.884,0,0,1-1.3-.573,36.714,36.714,0,0,1-3.948-4.353,17.878,17.878,0,0,1-2.819-5.115.312.312,0,0,1,.05-.286.377.377,0,0,1,.3-.157.3.3,0,0,1,.166.049,25.553,25.553,0,0,1,2.773,2.2h0c.417.363.847.738,1.279,1.091,1.5,1.224,3.013,2.428,4.508,3.58a2.132,2.132,0,0,1,.782,1.084,1.859,1.859,0,0,1-.03,1.13A1.933,1.933,0,0,1,174.438,26.244Zm-10.446-6.019a1.915,1.915,0,0,1-1.2-.436,12.8,12.8,0,0,1-4.181-6.147,13.538,13.538,0,0,1-.632-3.688,13.292,13.292,0,0,1,.416-3.753,1.657,1.657,0,0,1,1.669-1.311,2.07,2.07,0,0,1,1.59.74,1.69,1.69,0,0,1,.314,1.483l-.017.068a9.628,9.628,0,0,0,3.34,9.911l.108.088a1.637,1.637,0,0,1,.582.824,1.423,1.423,0,0,1-.035.864A2.141,2.141,0,0,1,163.992,20.224Z" transform="translate(0 7.127)"/>
  </g>
  <g id="HEAD" transform="translate(62.282)">
    <g id="_Skin-4" data-name="âœ‹ Skin" transform="translate(14.223 27.886)">
      <path id="_Skin-5" data-name="âœ‹ Skin" d="M115.2,59.861a160.875,160.875,0,0,0-1.289-20.9,31.509,31.509,0,0,0-8.536-17.674c-10.109-10.365-24.762-12.9-38.4-15.217L43.658,2.107C36.543.9,28.953-1.037,21.765.679a22.734,22.734,0,0,0-9.3,5.134c-2.65,2.24-5.5,4.646-7.294,7.66s-2.417,6.547-3,9.96Q1.18,29.206.634,35.048a145.822,145.822,0,0,0-.3,23.444C.59,62.278,1,66.053,1.519,69.812q.387,2.8.88,5.575c.1.546.171,1.151.271,1.762a18.6,18.6,0,0,0-1.12,6.429c.1,6.368,5.463,10.377,10.87,12.53,3.135,1.248,6.413,2.1,9.494,3.49,3.241,1.467,5.447,3.844,7.662,6.556a74.613,74.613,0,0,0,14.44,13.7c11.545,8.224,26.168,12.113,40.176,9.161a35.744,35.744,0,0,0,9.773-3.466,21.871,21.871,0,0,0,7.6-7.283,71.293,71.293,0,0,0,8.451-18.209,105.769,105.769,0,0,0,4.34-19.8,151.081,151.081,0,0,0,.846-20.393Z" transform="translate(0)" fill="#d08b5b"/>
    </g>
    <path id="_Ink-2" data-name="ðŸ– Ink" d="M110.4,154h0a23.582,23.582,0,0,1-10.569-2.363,22.143,22.143,0,0,1-8.6-7.675l-.088-.139c-.438-.7-.617-1.2-.505-1.406a.178.178,0,0,1,.17-.089,2.733,2.733,0,0,1,1.409,1.058,27.84,27.84,0,0,0,18.535,7.323,28.689,28.689,0,0,0,19.135-7.7c5.154-4.461,9.2-10.679,12.039-18.481a83.784,83.784,0,0,0,4.545-24.334c.82-16.356-1.963-34.567-7.444-48.712a107.785,107.785,0,0,0-11.746-.643c-27.555,0-52.879,10.4-69.479,28.528l1.374,8.288c.077.467.16.941.239,1.4l0,.014c.16.925.326,1.881.461,2.826a3.032,3.032,0,0,1-.483,2.546,2.134,2.134,0,0,1-1.7.812c-1.326,0-2.9-1.048-4.428-2.062h0a23.9,23.9,0,0,0-2.313-1.419,12.94,12.94,0,0,0-1.8-.133c-.249,0-.5.009-.736.025-6.669.861-9.309,7.463-8.939,13.233a14.28,14.28,0,0,0,2.727,7.785,8.472,8.472,0,0,0,6.886,3.454,11.58,11.58,0,0,0,3.416-.552,2.673,2.673,0,0,1,1.393-.465,1.455,1.455,0,0,1,.867.27,1.851,1.851,0,0,1,.605.8,33.2,33.2,0,0,1,4.517,5.717,53.879,53.879,0,0,0,7.5,9.229,50.273,50.273,0,0,0,6.436,5.646,10.669,10.669,0,0,0,1.672,1.23c1.677,1.089,3.578,2.323,2.616,4.067a1.693,1.693,0,0,1-1.641,1.075c-2.74,0-7.532-4.572-10.144-7.3-1.747-1.823-3.574-3.916-5.144-5.895a37.83,37.83,0,0,1-3.191-4.521,29.937,29.937,0,0,1-6.556,1.739,44.326,44.326,0,0,1-6.759.472c-3.772,0-7.582-.362-11.267-.712l-.054-.005-1.4-.132c-8.3-.433-15.181-2.409-20.442-5.874a25.245,25.245,0,0,1-6.284-5.837,24.843,24.843,0,0,1-3.8-7.333A33.12,33.12,0,0,1,.286,93.538a54.057,54.057,0,0,1,4.65-15.89,78.817,78.817,0,0,1,10-16.16A97.379,97.379,0,0,1,29.842,46.457a103.443,103.443,0,0,1,22.7-12.588,1,1,0,0,0,.6-1.151.806.806,0,0,0-.751-.713.909.909,0,0,0-.34.071,110.864,110.864,0,0,0-15.389,7.636l-.008-1.763a48.516,48.516,0,0,1,.554-8.772,21.611,21.611,0,0,1,1.356-5.4,14.456,14.456,0,0,1,2.834-5.207A42.956,42.956,0,0,1,48.466,11.4,52.162,52.162,0,0,1,74.183.237,26.389,26.389,0,0,1,77.77,0,32.81,32.81,0,0,1,84.8.787a33.636,33.636,0,0,1,6.9,2.307,26.542,26.542,0,0,1,5.979,3.747,18.293,18.293,0,0,1,4.283,5.106A124.058,124.058,0,0,1,114.77,9.614a106.782,106.782,0,0,1,13.413-.877,77.187,77.187,0,0,1,23.8,3.485,57.387,57.387,0,0,1,10.964,4.839,52.247,52.247,0,0,1,5.075,3.334,51.088,51.088,0,0,1,4.737,4A29.685,29.685,0,0,1,177,30.244a24.913,24.913,0,0,1,2.356,6.052,26.274,26.274,0,0,1-.06,12.229,38.057,38.057,0,0,1-4.315,10.553,52.571,52.571,0,0,1-6.994,9.307c-1.293,1.384-2.668,2.717-4.087,3.962a54.266,54.266,0,0,1-4.259,3.38,45.394,45.394,0,0,1-4.266,2.709,33.139,33.139,0,0,1-4.107,1.948,49.728,49.728,0,0,1,.194,9.462,146.616,146.616,0,0,1-1.73,16.384,114.98,114.98,0,0,1-4.43,18.414,52,52,0,0,1-7.9,15.551,32.528,32.528,0,0,1-5.351,5.608,36.574,36.574,0,0,1-6.612,4.362A35.7,35.7,0,0,1,118.054,153,30.617,30.617,0,0,1,110.4,154ZM52.42,88.518l-.176.1a1.508,1.508,0,0,1-.436.171c.208.089.415.186.616.287,0-.148-.006-.267-.006-.375l0-.187Zm5.348,17a2.453,2.453,0,0,1-1.011-.76l-.057-.065.012.018c.147.226.2.384.166.454a.092.092,0,0,1-.089.042,1.528,1.528,0,0,1-.926-.729l-.009-.024a2.569,2.569,0,0,1-.4-.418c-.022-.028-.037-.048-.048-.06l-.009-.009a11.441,11.441,0,0,0-4.355-2.709c-.217-.041-.432-.073-.641-.1a19.417,19.417,0,0,0-2.656-.4.49.49,0,0,1-.3-.2c-.562-.019-.891-.134-.9-.314-.012-.157.231-.335.531-.39l.01,0-.111-.009c-.571-.056-1.007-.208-1.016-.355-.005-.09.144-.171.432-.233l.111-.022c-.012-.018-.022-.037-.037-.064-.257-.028-.4-.138-.391-.3a.427.427,0,0,1,.412-.363.344.344,0,0,1,.135.027.306.306,0,0,1,.012-.273c.05-.067.147-.1.307-.1.057,0,.116,0,.172.008h.014c.049,0,.095.007.132.007a.151.151,0,0,0,.09-.017A.491.491,0,0,1,47.569,98a.88.88,0,0,0,.165-.138c.018-.02.018-.02.064-.022h.021a1.031,1.031,0,0,1,.748-.266,3.792,3.792,0,0,1,1.006.188l.094.027a3.137,3.137,0,0,0,.754.16h.023a9.935,9.935,0,0,1,4.281,1.722,11.58,11.58,0,0,1,1.779,1.224h.005l0,0,.043.029a9.91,9.91,0,0,1,1.265,1.248c.549.629.835,1.077.787,1.23-.013.041-.049.061-.108.061a1.056,1.056,0,0,1-.386-.122c-.1-.131-.212-.269-.35-.433a.281.281,0,0,1-.051.056l.086.128c.3.458.437.73.4.808a.046.046,0,0,1-.044.023,5.635,5.635,0,0,1-1.645-1.486.257.257,0,0,1-.044.027l-.009,0,.451.55.154.193.1.092c.806.794,1.192,1.547,1.115,1.737a.074.074,0,0,1-.075.048c-.2,0-.658-.433-1.237-1.159a.692.692,0,0,1,.132.31l.1.133c.6.779.684,1.036.646,1.114A.062.062,0,0,1,57.768,105.517Z" transform="translate(-19.172 5.577)"/>
  </g>
  <g id="FACE" transform="translate(111.55 57.632)">
    <path id="_Ink-3" data-name="ðŸ– Ink" d="M33.475,59.432A11.8,11.8,0,0,1,29,58.539a12.645,12.645,0,0,1-2.922-1.679,12.445,12.445,0,0,1-2.379-2.4,2.457,2.457,0,0,1-.5-1.9A2.742,2.742,0,0,1,24.27,50.84a2.63,2.63,0,0,1,1.565-.545,2.272,2.272,0,0,1,.349.027,2.417,2.417,0,0,1,1.618,1.07l.1.132a8.352,8.352,0,0,0,3.06,2.568,6.947,6.947,0,0,0,3.035.708,6.726,6.726,0,0,0,.752-.042c2.48-.28,4.2-1.561,6.171-3.537.2-.207.417-.431.7-.728a1.1,1.1,0,0,1,.577-.445,1.183,1.183,0,0,1,.376-.06,1.278,1.278,0,0,1,1.047.546,1.167,1.167,0,0,1,.2.768,7.908,7.908,0,0,1-2.625,5.029,11.5,11.5,0,0,1-2.709,1.889,11.282,11.282,0,0,1-3.007,1.031A11.076,11.076,0,0,1,33.475,59.432Zm3.15-17.842h0a10.818,10.818,0,0,1-3.857-.777,19.482,19.482,0,0,1-4.536-2.574,1.743,1.743,0,0,1-.633-1.007,2.085,2.085,0,0,1,.09-1.13,2.571,2.571,0,0,1,.763-1.1,1.859,1.859,0,0,1,1.19-.464,1.689,1.689,0,0,1,.921.282l.307.237,0,0c1.576,1.219,3.958,3.06,6.243,3.06a3.727,3.727,0,0,0,2.777-1.232,4.107,4.107,0,0,0,.779-3.306c-.527-2.571-3.323-4.445-4.167-4.958a.778.778,0,0,1-.211-.894,1.158,1.158,0,0,1,1.128-.8,1.578,1.578,0,0,1,.266.023,8.415,8.415,0,0,1,2.959,1.069,6.712,6.712,0,0,1,1.99,1.835,7.29,7.29,0,0,1,1.271,4.87,7.777,7.777,0,0,1-2.118,4.753A7.011,7.011,0,0,1,36.626,41.591Zm-25.1-17.423a2.53,2.53,0,0,1-1.642-.643,2.557,2.557,0,0,1-.861-1.653,18.62,18.62,0,0,1,.1-4.85c.058-.471.119-.958.161-1.484a2.9,2.9,0,0,1,1.1-2.075,3.389,3.389,0,0,1,2.085-.733,2.569,2.569,0,0,1,1.576.5,2.337,2.337,0,0,1,.871,1.549,13.009,13.009,0,0,1-1.358,8.018A2.243,2.243,0,0,1,11.527,24.168Zm36.842-1.1a2.213,2.213,0,0,1-1.735-.743,7.47,7.47,0,0,1-1.6-3.962,4.589,4.589,0,0,1,1.252-3.94,2.6,2.6,0,0,1,.2-.306,2.835,2.835,0,0,1,2.181-1.255,2.363,2.363,0,0,1,.662.1,3.19,3.19,0,0,1,2.131,1.86,6.575,6.575,0,0,1,.264,3.6,12.038,12.038,0,0,1-1.091,3.393,2.2,2.2,0,0,1-.943.931A2.856,2.856,0,0,1,48.369,23.068ZM.408,11.514a.4.4,0,0,1-.335-.206.449.449,0,0,1-.027-.44A15.284,15.284,0,0,1,3.473,6.53,21.188,21.188,0,0,1,8.06,3.4a19.725,19.725,0,0,1,5.447-1.9l.582-.1a14.173,14.173,0,0,1,2.377-.257A3.673,3.673,0,0,1,19.4,2.231,2.492,2.492,0,0,1,19.988,4,1.622,1.622,0,0,1,19.4,5.159a4.519,4.519,0,0,1-3.1.909c-.244,0-.5-.006-.741-.012h-.009c-.235-.006-.5-.013-.765-.013-.243,0-.46.006-.663.017a20.944,20.944,0,0,0-4.61.786,31.328,31.328,0,0,0-8.892,4.6A.382.382,0,0,1,.408,11.514ZM56.5,9.167h0c-.083-.02-.166-.04-.245-.061a13.876,13.876,0,0,1-2.689-1.049l-.873-.43A24.26,24.26,0,0,0,49.575,6.3,36.811,36.811,0,0,0,42.47,4.728a2.9,2.9,0,0,1-1.425-.541,2.136,2.136,0,0,1-.8-1.214,2.172,2.172,0,0,1,.246-1.82,2.319,2.319,0,0,1,1.125-.97A2.53,2.53,0,0,1,42.577,0a2.825,2.825,0,0,1,.554.056l.445.091A31.8,31.8,0,0,1,51.25,2.639a15.517,15.517,0,0,1,3.375,2.219,9.851,9.851,0,0,1,2.386,3.083c.083.644.006.8-.08.912l-.025.031-.022.03a.617.617,0,0,1-.381.253Z" transform="translate(16.422 16.112)"/>
  </g>
  <g id="FACIAL_HAIR" data-name="FACIAL HAIR" transform="translate(100.395 104.729)">
    <path id="_Ink-4" data-name="ðŸ– Ink" d="M27.5,46.518h0a22.644,22.644,0,0,1-4.486-.441,36.847,36.847,0,0,1-6.119-1.161c-2.254-.591-4.712-1.365-7.108-2.237a62.107,62.107,0,0,1-6.2-2.6A10.683,10.683,0,0,1,.189,37.835a.7.7,0,0,1-.18-.547,4.869,4.869,0,0,1,1.4-2.75,3.229,3.229,0,0,1,2.2-.734,14.288,14.288,0,0,1,3.989.868c.72.227,1.464.461,2.154.617a56.158,56.158,0,0,0,9.563.789c4.206-.916,3.443-7.515,3.156-10v0c-.032-.279-.058-.5-.07-.658a7.08,7.08,0,0,1,.293-2.5,6.568,6.568,0,0,1,1.311-2.446,4.724,4.724,0,0,1,3.4-1.646c.078,0,.157-.006.235-.006a3.939,3.939,0,0,1,2.309.738,5.924,5.924,0,0,1,1.589,1.758,10.89,10.89,0,0,1,1.392,3.835c.048.332.093.744.144,1.221a26.619,26.619,0,0,0,.765,4.523,5.445,5.445,0,0,0,.847,1.8,1.7,1.7,0,0,0,1.35.725,1.906,1.906,0,0,0,.45-.057c1.18-.288,3.127-1.616,5.01-2.9,1.23-.839,2.392-1.632,3.323-2.129a6.193,6.193,0,0,1,1.67-.265,2.338,2.338,0,0,1,1.9.76,3.646,3.646,0,0,1,.454,3.015,17.726,17.726,0,0,1-2.024,3.932,31.594,31.594,0,0,1-2.734,3.916,19.754,19.754,0,0,1-3.492,2.957,22.288,22.288,0,0,1-4.076,2.139A24.461,24.461,0,0,1,27.5,46.518ZM46.541,15.343h0a8.137,8.137,0,0,1-3.748-1.131,16.456,16.456,0,0,0-3.147-1.256C38.315,12.6,36.869,12.3,35.47,12a28.188,28.188,0,0,1-6.515-1.842c-2.7,1.529-5.7,1.993-8.606,2.441h0l-.591.092a33.261,33.261,0,0,0-4.686,1.234,22.847,22.847,0,0,1-6.446,1.391c-.2,0-.39-.007-.577-.02a.37.37,0,0,1-.151.025,3.031,3.031,0,0,1-2.062-1.357c-.571-.83-1.059-2.319-.146-4.706a11.027,11.027,0,0,1,4.7-5.22,25.067,25.067,0,0,1,7.4-2.979A33.712,33.712,0,0,1,25.438,0a10.462,10.462,0,0,1,4.228.721A11.083,11.083,0,0,1,33.318.184,21.952,21.952,0,0,1,39.63,1.2a18.922,18.922,0,0,1,5.825,2.889,10.516,10.516,0,0,1,3.251,4.551,10.784,10.784,0,0,1,.659,2.577,6.08,6.08,0,0,1-.1,2.235,2.242,2.242,0,0,1-1.9,1.838A6.289,6.289,0,0,1,46.541,15.343Z" transform="translate(34.758 8.986)" />
  </g>
</svg>
