<svg id="peep-11" xmlns="http://www.w3.org/2000/svg" width="119.607" height="231.186" viewBox="0 0 219.607 331.186">
  <g id="BODY" transform="translate(0 118.658)">
    <g id="_Skin" data-name="âœ‹ Skin" transform="translate(1.664)">
      <path id="_Skin-2" data-name="âœ‹ Skin" d="M13.217,207.3c36.226,5.514,73.11,5.792,109.637,3.789a254.54,254.54,0,0,1,43.4.107c8.535.636,45.958,3.5,49.016-4.158-1.924-40.8-5.822-81.938-17.779-121.172-4.917-13.931-9.14-25.494-18.738-37.022-3.025-3.148-9.548-9.749-13.285-11.9-3.238-1.865-4.592-1.2-6.451-4.35-1.848-3.48-3.21-9.292-5.834-11.747-2.671-2.5-6.63-1.606-11.536-.8.9-12.208-4.721-15.317-12.468-17.638C115.565-2.8,102.117-.184,98.69,16.428c-6.354,0-9.924,2.74-13.782,5.374-1.577,1.076-.48,3.819-2.364,4.665-3.486,1.244-9.646.939-13,2.47C54.278,35.9,40.684,45.991,31.756,60.734,11.741,92.209-2.007,158.511.372,195.817c-1.042,1.638.4,3.987.765,5.749a3.346,3.346,0,0,0,3.523,2.377C6.842,206.293,10.215,206.816,13.217,207.3Z" transform="translate(0 0)" fill="#d08b5b"/>
    </g>
    <path id="_Top" data-name="ðŸ‘• Top" d="M88.584,3.652A12.5,12.5,0,0,1,97.63,0l.155,0,1.125.051-.752,3.7-.038.175-.153.642-.2.84-.073.309-.077.342-.035.165-.034.162L97.225,7.96l.06.14-.017.357c-.05,1.29.228,2,.839,2.227l.049.017.348.112.285.619c.655,1.414,1.265,2.65,1.892,3.814a85.755,85.755,0,0,0,6.524,10.2q3.584,4.86,7.467,9.268c1.164,1.32,2.393,2.646,3.7,4L119.5,39.86l.358.363.241.241.3.295.433.414.314.31.1.1a2.323,2.323,0,0,0,.316.257l.033.02.1.059,5.221,5.5,1.844,1.016.876.486.177-.354.036-.114,1.941-4.271,1.185-2.616c2.432-5.382,4.324-9.663,6.055-13.739l.215-.509.638-1.517.338-.809c1.547-3.714,2.689-6.581,3.712-9.366l.145-.4.215-.6.32-.9.058-.153c.278-.712-.4-3.3-1.077-4.721l-.038-.079-.175-.352-.189-.371a12.852,12.852,0,0,1-1.037-3q-.066-.283-.124-.571l-.056-.289-.036-.19-.05-.266-.071-.381,1.5-.252.825-.135.36-.057c.466-.072.881-.131,1.272-.181l.145-.018.262-.031.009.052.537.053.4.041a38.749,38.749,0,0,1,4.551.691l.106.025.192.048.088.023A4.094,4.094,0,0,1,154.395,5.3a9.686,9.686,0,0,1,1.094,2.175l.151.378.5,1.238q.088.226.271.723l.424,1.157,2.126,5.884L161.136,18c1.011.53,1.751.913,2.116,1.093l.13.063.093.042.75.3-.08.235.091.052c8.957,5.164,15.864,13.107,21.242,23.652l.162.32.167.332c4.286,8.59,7.357,18.176,10.355,30.973l.185.8.146.633.782,3.415c2.937,12.895,4.955,22.51,6.626,31.945l.108.615.278,1.6q3.146,18.318,5.259,36.3l.233,2.017c.586,5.149,1.116,10.471,1.691,16.862l.077.859.253,2.871q.4,4.641.738,9.261l.11,1.54.225,3.348.132,1.908.016.258.054.994.015.233c.02.3.043.551.072.784l.023.172.025.167a4.125,4.125,0,0,0,.463,1.319l.063.115.416.746-.755.4c-3.934,2.077-11.681,2.991-22.307,3.038H190.1c-5.164,0-10.636-.2-16.346-.543l-1.292-.079-1.078-.069L170,196.473l-.719-.051-3-.22A252.639,252.639,0,0,0,123,196.1c-40.688,2.231-75.808,1.289-108.817-3.648l-1-.151-.737-.12-.439-.074c-3.5-.6-5.7-1.367-7.415-2.978l-.09-.086-.075-.073H4.4a4.193,4.193,0,0,1-3.9-2.81l-.03-.09-.039-.125-.027-.124c-.027-.12-.061-.249-.1-.391l-.033-.109-.273-.9.919-.168a.393.393,0,0,0,.241-.186l.077-.11.132-.184.32-.44a3.513,3.513,0,0,0,.592-1.082,3.948,3.948,0,0,0,.093-1.087l-.006-.233-.036-.845c0-.068,0-.127-.005-.184v-1.274l0-1.307c0-.57.005-1.126.01-1.673l.007-.812.007-.655q.066-5.43.318-10.848.492-10.576,1.687-21.1a318.916,318.916,0,0,1,7.586-42.093l.344-1.355C15.99,84.284,19.56,73.1,24.1,62.763c5.772-13.151,12.809-23.974,21.67-32.626a71.35,71.35,0,0,1,16-11.853,69.493,69.493,0,0,1,8.444-3.8l.431-.161.7-.255.533-.2,1.719-.644c.361-.136.754-.287,1.219-.471l.288-.114,3.077-1.23.511-.2.568-.221.418-.161c.683-.261,1.3-.489,1.875-.69l.339-.117.308-.1,1.313-.455-.026,1.2a2.312,2.312,0,0,0,.642,1.83l.015.014.016.013.014.009.08,0,.31,0a.541.541,0,0,0,.09-.062c.442-.376.647-.88.846-2.036l.053-.322.092-.6.037-.228a6.562,6.562,0,0,1,.474-1.752,10.322,10.322,0,0,1,1.261-2.1l.118-.15L88,4.694l.072-.09a1.436,1.436,0,0,0,.286-.5l.008-.037.047-.239Z" transform="translate(1.664 15.27)" fill="#e2d584"/>
    <path id="_Ink" data-name="ðŸ– Ink" d="M216.988,201.134a2.154,2.154,0,0,1-1.768-.939l-.216-.331a6.16,6.16,0,0,1-1.056-2.421,18.186,18.186,0,0,1-.172-1.962c-.014-.28-.029-.569-.05-.85-.069-.952-.132-1.912-.194-2.84v-.023c-.049-.743-.1-1.511-.153-2.266-.249-3.569-.534-7.2-.847-10.787-.51-5.845-1.209-13.542-2.1-21.254-1.415-12.289-3.235-24.933-5.407-37.581-2.15-12.515-4.875-24.836-7.5-36.287l-.286-1.246c-1.459-6.347-2.816-11.469-4.272-16.117a108.968,108.968,0,0,0-6.2-15.8c-5.654-11.447-12.832-19.484-21.944-24.57a.172.172,0,0,1-.092-.2.2.2,0,0,1,.289-.137,50.716,50.716,0,0,1,14.246,10.13,65.2,65.2,0,0,1,10.538,14.021,97.392,97.392,0,0,1,7.334,16.766c2.079,6.109,3.716,12.344,5.044,17.638l.106.425c2.869,11.474,5.561,23.92,8.23,38.048,1.192,6.306,2.305,12.839,3.31,19.419.966,6.328,1.862,12.895,2.662,19.519.862,7.131,1.521,13.47,2.016,19.381.27,3.233.519,6.5.737,9.71.1,1.5.179,2.731.243,3.887l.051.972c.007.14.016.281.024.418a7.274,7.274,0,0,1-.093,2.218,8.221,8.221,0,0,1-.746,1.755c-.058.112-.124.238-.187.363A1.683,1.683,0,0,1,216.988,201.134Zm-169.8-.647a1.456,1.456,0,0,1-.915-.36l-.174-.138-.123-.1-.006,0a4.089,4.089,0,0,1-1.3-1.406,7.9,7.9,0,0,1-.673-3.113l0-.026c-.1-1.247-.073-2.526-.048-3.763.008-.393.016-.8.021-1.2.033-3.284.08-6.624.138-9.928.233-13.275.69-25.178,1.4-36.388.377-5.968.884-11.725,1.507-17.113l.125-1.065c.1-.809.189-1.63.279-2.424.1-.869.2-1.767.306-2.657a37.391,37.391,0,0,1-8.03-7.73.238.238,0,0,1-.027-.255.219.219,0,0,1,.189-.129.21.21,0,0,1,.15.071,29.2,29.2,0,0,0,3.76,3.282,31.447,31.447,0,0,0,4.233,2.6,48.638,48.638,0,0,1,2.4-10.441.282.282,0,0,1,.262-.176.21.21,0,0,1,.214.176,51.159,51.159,0,0,1,.887,9.393q.009.29.019.578c.1,2.882.113,6.032.056,9.911-.137,9.4-.371,18.953-.6,28.189l0,.122c-.065,2.642-.132,5.373-.2,8.059-.126,5.341-.271,11.68-.382,18.2-.038,2.237-.072,4.533-.1,6.826l-.033,3a36.682,36.682,0,0,1-.213,3.963,5.648,5.648,0,0,1-.814,2.45,3.467,3.467,0,0,1-.994.936c-.1.072-.2.146-.306.224l-.089.068A1.486,1.486,0,0,1,47.184,200.488Zm79.172-1.955a.563.563,0,0,1-.592-.448,98.286,98.286,0,0,1-.918-12.817v-.03c-.017-.6-.034-1.23-.053-1.843l-.032-.979c-.182-5.315-.265-10.624-.247-15.781.055-15.468.4-31.189.737-46.392v0l0-.095c.07-3.183.143-6.475.211-9.713.054-2.526.1-5.094.151-7.578v-.067c.131-6.749.266-13.728.492-20.593.169-5.118.345-9.736.54-14.12l.018-.4v0c.085-1.932.174-3.929.3-5.892l.063-.9c.021-.29.041-.582.06-.865v-.006c.019-.285.039-.579.06-.87a3.229,3.229,0,0,1-1.113.2,7.411,7.411,0,0,1-3.4-1.226c-.267-.148-.543-.3-.813-.439l-1.612-.832-.12-.062c-1.355-.7-2.756-1.422-4.153-2.14l-1.964-1.008-3.93-2.01-.44-.228,0,0a6.422,6.422,0,0,0-2.885-1,3.4,3.4,0,0,0-1.693.481A96.887,96.887,0,0,0,86.318,65.123a2.358,2.358,0,0,1-1.612.6,2.308,2.308,0,0,1-1.313-.387,1.736,1.736,0,0,1-.731-1.177,49.239,49.239,0,0,1-.543-5.215c-.088-1.641-.11-3.353-.068-5.235.078-3.493.37-7.04.652-10.47l0-.055q.047-.571.094-1.141l.221-2.73c.239-2.912.539-6.35.949-9.766l.018-.148v0c.165-1.377.336-2.8.521-4.2l.147-1.087c.044-.313.085-.632.126-.939v-.008a24.714,24.714,0,0,1,.78-4.126,1.187,1.187,0,0,1-.455-.27A3.267,3.267,0,0,1,84.224,16a10.234,10.234,0,0,1,.791-2.969,13.158,13.158,0,0,1,3.068-4.5,1.676,1.676,0,0,1,1.1-.471A16.532,16.532,0,0,1,92.75,6.235a11.2,11.2,0,0,1,3.757-.68,10.088,10.088,0,0,1,3.055.478c.125-.6.223-1.052.318-1.474l.112-.49c.062-.264.115-.564.171-.882a12.757,12.757,0,0,1,.4-1.771A2.813,2.813,0,0,1,101.429.03a.136.136,0,0,1,.081-.03.084.084,0,0,1,.066.03,3.641,3.641,0,0,1,.542,2.423c0,.17,0,.33,0,.489l0,.091c.041,1.238.057,2.552.051,4.261l-.015,4.527c0,.23-.008.469-.015.7-.012.395-.025.8-.005,1.2l.017.242a1.5,1.5,0,0,1,.388,1.38,1.955,1.955,0,0,1-.866,1.555l1.075,1.529,1.076,1.528c2.686,3.818,4.783,6.7,6.8,9.343,2.3,3.021,4.855,6.058,7.586,9.026,1.4,1.519,2.7,2.883,3.974,4.169.381.384.774.766,1.153,1.136l.517.5.554.549c.076.076.154.15.237.228h0a3.4,3.4,0,0,1,.719.84,2.541,2.541,0,0,1,.153.678,1.542,1.542,0,0,0,.049.272,1.584,1.584,0,0,1-.135,1.452,1.05,1.05,0,0,1-.89.527,1.188,1.188,0,0,1-.429-.085l.053-.035c.069-.048.1-.081.1-.1s-.017-.014-.042-.014a2.228,2.228,0,0,0-.462.106,1.851,1.851,0,0,1-.858-.211l-.08-.044a3.774,3.774,0,0,1-.862-.7l-.156-.154-.076-.073c-.592-.556-1.169-1.149-1.727-1.722l-.308-.316c-1.478-1.513-2.816-2.951-4.088-4.394C113.026,38,110.5,34.864,108.1,31.605a87.033,87.033,0,0,1-6.588-10.3c-.663-1.23-1.313-2.547-2.047-4.147a1.91,1.91,0,0,1-1.231-1.208A5,5,0,0,1,98,13.921a18.8,18.8,0,0,1-1.125-3.3.186.186,0,0,1,.172-.218.145.145,0,0,1,.11.053,18.184,18.184,0,0,1,1.129,1.44c.124-.606.265-1.178.389-1.683v0c.092-.373.171-.694.225-.957l.556-2.731c-.174-.009-.355-.014-.536-.014A11.645,11.645,0,0,0,90.744,9.9,2.838,2.838,0,0,1,90,11.136l0,0c-.086.1-.174.207-.262.316a9.6,9.6,0,0,0-1.268,2.069,8.376,8.376,0,0,0-.5,2.116,4.815,4.815,0,0,1-1.222,3.121,1.382,1.382,0,0,1-.48.265,36.076,36.076,0,0,1,.39,7.927v0c-.018.758-.036,1.541-.04,2.294v.293c0,3.893-.135,7.811-.265,11.177l-.146,3.684a109.036,109.036,0,0,0,.164,14.716c2.171-1.927,4.443-3.787,6.751-5.529,1.52-1.147,3.095-2.271,4.679-3.34l1.291-.865.054-.036a31.6,31.6,0,0,1,4.772-2.818,6.611,6.611,0,0,1,2.708-.582,8.851,8.851,0,0,1,3.753.942c1.46.682,2.913,1.451,4.317,2.194h0c.644.341,1.31.694,1.968,1.033,1.623.837,3.271,1.68,4.865,2.5l.228.117,1.289.66c.342.175.718.344,1.116.523a8.822,8.822,0,0,1,3.393,2.179c.069-.306.147-.6.233-.879a1.946,1.946,0,0,1,.186-1.386c3.382-6.228,6.476-12.512,9.881-19.491.791-1.621,1.576-3.278,2.334-4.88l0-.007c.79-1.669,1.607-3.394,2.433-5.083l1.574-3.223c.316-.646.561-1.142.792-1.609s.468-.931.7-1.384c.169-.332.344-.674.513-1.012.079-.157.168-.316.255-.47l0,0c.1-.177.2-.36.291-.542l.078-.171c0-.008.288-.9.176-1.076a.057.057,0,0,0-.05-.028.1.1,0,0,0-.036.008l-.025.012a.152.152,0,0,1-.075.021.132.132,0,0,1-.118-.079.157.157,0,0,1,.02-.167.538.538,0,0,1,.424-.228,1.072,1.072,0,0,1,.811.647c.521,1.047-.131,2.562-.654,3.78-.133.309-.258.6-.352.857l-.025.07c-1.475,4.185-3.138,8.251-4.715,12.021-3.044,7.276-6.359,14.569-9.566,21.621l-.457,1.006-.041.129c.415-.319.846-.621,1.263-.913h0c.319-.223.62-.435.906-.647,1.713-1.271,3.53-2.516,5.134-3.614,2.911-1.993,6.091-4,9.72-6.135l.662-.388a14.605,14.605,0,0,1,2.138-1.068,6.361,6.361,0,0,1,2.281-.449,5.669,5.669,0,0,1,.826.061,14.721,14.721,0,0,1,4.309,1.625c.279.14.567.284.848.42l.17.082,5.081,2.421c-.5-1.991-1.069-4.112-1.745-6.483-1.179-4.135-2.505-8.336-3.942-12.486-1.286-3.717-2.693-7.462-4.3-11.449l-.459-1.135-.051-.127-.015-.038c-.608-1.528-1.237-3.108-2.952-3.571a7.653,7.653,0,0,0-1.991-.191H149.5a5.288,5.288,0,0,1-2.913-.593.217.217,0,0,1-.1-.219.193.193,0,0,1,.146-.162l1-.253a18.2,18.2,0,0,1,4.245-.67,6.559,6.559,0,0,1,1.619.185,6.272,6.272,0,0,1,2.611,1.46,9.157,9.157,0,0,1,1.864,2.356,38.536,38.536,0,0,1,2.115,4.82c.148.385.3.783.457,1.175l.126.316c.918,2.295,1.8,4.6,2.621,6.856,1.65,4.533,3.189,9.223,4.575,13.941.632,2.151,1.253,4.38,1.9,6.813.091.343.213.723.342,1.125v0c.119.371.242.755.354,1.15a6.587,6.587,0,0,1,.766.894.956.956,0,0,1,.172.738,1.287,1.287,0,0,1-.554.807,2.953,2.953,0,0,1-.448,1.566,2.454,2.454,0,0,1-2.066,1.091,2.185,2.185,0,0,1-1.592-.639,2.011,2.011,0,0,1-.514-1.531,1.908,1.908,0,0,1,.38-1.02l-.006-.048-.025-.088c-.312-.15-.619-.307-.944-.472h0c-.231-.118-.47-.24-.712-.36l-5.333-2.641c-.412-.2-.827-.433-1.267-.675a12.446,12.446,0,0,0-3.707-1.563,2.868,2.868,0,0,0-.478-.039,7.62,7.62,0,0,0-3.445,1.276c-.259.145-.5.283-.743.409l-.089.047c-3.638,1.869-7.21,3.789-9.916,5.253-.933.505-1.875,1.031-2.786,1.54l-.012.007c-.652.364-1.326.741-1.991,1.106-.367.2-.735.423-1.124.658h0a13.258,13.258,0,0,1-3.158,1.547,1.617,1.617,0,0,1-1.013.357,1.926,1.926,0,0,1-1-.3,31.421,31.421,0,0,1,.3,3.93c.015.448.03.912.053,1.369.1,1.965.125,3.966.153,5.9.006.405.012.824.019,1.236l.015.892c.1,5.036.154,10.2.175,15.78.045,11.935-.023,24.071-.09,35.807-.038,6.683-.077,13.593-.094,20.394-.021,8.232-.161,16.941-.454,28.239-.108,4.166-.342,8.352-.553,11.949l-.129,2.171c-.039.651-.076,1.312-.111,1.952a92.14,92.14,0,0,1-1.167,11.78A.586.586,0,0,1,126.355,198.533Zm8.532-.67a2.872,2.872,0,0,1-.747-.1,2.82,2.82,0,0,1-1.964-1.968,2.855,2.855,0,0,1,0-1.5l.068-.163a2.9,2.9,0,0,1,2.017-2.022,2.849,2.849,0,0,1,.757-.1,2.9,2.9,0,0,1,.883,5.654l-.1.031-.162.068A2.876,2.876,0,0,1,134.888,197.862Zm58.4-6.114a4.873,4.873,0,0,1-.734-.063,2.086,2.086,0,0,1-1.38-.943,3.222,3.222,0,0,1-.55-1.6c-.308-6.472-.732-13.3-1.295-20.883-.608-8.185-1.066-16.521-1.51-24.582v-.018c-.224-4.08-.457-8.3-.705-12.446l-.261-4.315c-.254-4.248-.533-9.187-.619-14.037-.025-1.405,0-2.833.015-4.214.024-1.668.049-3.393-.007-5.089-.016-.484-.038-.986-.059-1.471a28.258,28.258,0,0,1,.305-7.312.13.13,0,0,1,.13-.094.114.114,0,0,1,.107.063,19.435,19.435,0,0,1,1.388,4.413c1.616-2.049,3.363-4.232,5.178-6.321a.18.18,0,0,1,.137-.068.219.219,0,0,1,.178.109.213.213,0,0,1,.012.211c-1.568,3.081-3.3,6.1-4.97,9.026.131.8.268,1.624.425,2.432.23,1.181.483,2.374.727,3.528v0c.455,2.15.926,4.374,1.27,6.6,1.979,12.82,2.961,25.876,3.726,37.107.827,12.134.952,24.486,1.074,36.431l.009.927a2.751,2.751,0,0,1-.544,1.6,2.26,2.26,0,0,1-1.386.941A3.605,3.605,0,0,1,193.284,191.748Zm-190.85-.984a1.263,1.263,0,0,1-1.005-.55l-.194-.26-.03-.04a4.585,4.585,0,0,1-1.159-2.39c-.06-.726-.048-1.478-.037-2.2,0-.316.01-.643.008-.964-.008-1.9.011-3.911.059-6.337.081-4.024.241-8.107.477-12.135.487-8.309,1.3-16.56,2.4-24.524,1-7.173,2.264-14.432,3.762-21.576,1.488-7.094,3.243-14.251,5.216-21.271,2.1-7.472,4.146-13.932,6.255-19.749a164.035,164.035,0,0,1,8.177-19.016c1.5-2.921,3.087-5.739,4.731-8.375,1.734-2.782,3.576-5.442,5.473-7.9a83.717,83.717,0,0,1,6.273-7.261,73.384,73.384,0,0,1,7.132-6.444,69.422,69.422,0,0,1,7.362-5.079,64.493,64.493,0,0,1,7.974-4.043,42.151,42.151,0,0,1,8.676-2.677,42.937,42.937,0,0,1,5.888-.533c.962-.042,1.957-.086,2.942-.163h.017a.151.151,0,0,1,.157.152.2.2,0,0,1-.174.214A35.652,35.652,0,0,0,74.581,20l-.008,0c-.456.171-.927.348-1.387.517l-.268.1a69.252,69.252,0,0,0-9.2,4.074A70.4,70.4,0,0,0,47.907,36.4c-18.7,18.258-27.2,44.247-33.6,69.613-1.711,6.78-3.221,13.8-4.487,20.864C8.589,133.755,7.553,140.86,6.743,148c-.79,6.961-1.356,14.043-1.683,21.049-.166,3.582-.273,7.223-.317,10.819-.021,1.671-.029,3.484-.027,5.544,0,.234.012.481.024.742a6.672,6.672,0,0,1-.1,1.994,5.308,5.308,0,0,1-.931,1.64c-.108.147-.21.286-.307.428A1.171,1.171,0,0,1,2.434,190.764ZM135.02,174.619c-.049,0-.1,0-.153,0l-.089-.006.053.007-.094-.01c-.088-.008-.176-.017-.262-.029l-.077-.009-.1-.012c-.04,0-.071,0-.1,0s-.048,0-.07,0c-.049,0-.1.007-.149.007a2.63,2.63,0,0,1-1.691-.771,2.546,2.546,0,0,1-.566-.847,2.112,2.112,0,0,1-.2-1l.026-.25a2.856,2.856,0,0,1,.262-1.013,3.082,3.082,0,0,1,.746-1.085,3.33,3.33,0,0,1,2.274-.927h.025a2.865,2.865,0,0,1,1.536.4l.6.466c.154.2.313.405.487.632a2.7,2.7,0,0,1,.348,1.872,2.2,2.2,0,0,1-.348,1.091l-.458.594a3.918,3.918,0,0,1-1.341.79A2.119,2.119,0,0,1,135.02,174.619Zm-.084-31.679a2.838,2.838,0,0,1-1.142-.233,2.985,2.985,0,0,1-1.374-1.136l-.053-.088c-.022-.035-.044-.073-.064-.111l-.029-.057a3.071,3.071,0,0,1,.459-3.568,2.7,2.7,0,0,1,2.029-.838,3.269,3.269,0,0,1,1.531.378,3.682,3.682,0,0,1,.6.439h0l.159.132a2.98,2.98,0,0,1,.874,2.115,2.682,2.682,0,0,1-.23,1.143,3.025,3.025,0,0,1-.644.972l-.126.123a2.428,2.428,0,0,1-1.191.646A4.433,4.433,0,0,1,134.936,142.94Zm-1.26-30.045a2.767,2.767,0,0,1-.737-.1,2.828,2.828,0,0,1-1.971-1.975l-.055-.382a3.376,3.376,0,0,1,.063-1.449,3.936,3.936,0,0,1,.344-.861,3.054,3.054,0,0,1,.8-.916,3.4,3.4,0,0,1,1.082-.553,2.367,2.367,0,0,1,.709-.111,2.324,2.324,0,0,1,.508.057,2.988,2.988,0,0,1,1.443.6,1.54,1.54,0,0,1,.548.548,2.313,2.313,0,0,1,.546,1.04l.109.813-.109.813-.308.731c-.1.129-.18.235-.256.331a3.411,3.411,0,0,1-1.061.888A2.85,2.85,0,0,1,133.676,112.895ZM174.462,88.25a12.146,12.146,0,0,1-1.357-.1c-.283-.032-.576-.066-.859-.085-1.436-.1-2.905-.179-4.368-.245-3.037-.136-5.807-.208-8.467-.22l-1.354,0c-2.158,0-4.481.021-7.1.063-.8.013-1.625.044-2.422.074-1.075.04-2.186.082-3.276.082a28.928,28.928,0,0,1-3-.138.368.368,0,0,1-.34-.323.345.345,0,0,1,.247-.369,37.467,37.467,0,0,1,7.621-1.477l.9-.112c2.817-.357,5.754-.625,8.729-.8,3.184-.183,6.132-.282,9.013-.3.448,0,.9,0,1.353,0,.706,0,1.427,0,2.141.012l.873.012c.191,0,.378,0,.559,0a4.438,4.438,0,0,1,3.307.886,1.364,1.364,0,0,1,.472,1.132,1.888,1.888,0,0,1-.8,1.4A3.114,3.114,0,0,1,174.462,88.25Zm-41.075-7-.1,0a3.039,3.039,0,0,1-1.535-.416l-.616-.477a3.059,3.059,0,0,1-.782-1.345l-.109-.81a2.94,2.94,0,0,1,1.87-2.785,2.282,2.282,0,0,1,1.075-.264l.1,0a3.024,3.024,0,0,1,1.44.363l.1.053.616.476a3.059,3.059,0,0,1,.782,1.345l.109.81a3.148,3.148,0,0,1-2.946,3.05Zm10.852-62.994h0l-.07,0a2.885,2.885,0,0,1-1.934-.822,4.926,4.926,0,0,1-1.13-1.86,17.449,17.449,0,0,1-.8-4.458,12.719,12.719,0,0,1,.322-3.948,10.883,10.883,0,0,1,1.582-3.62.862.862,0,0,1,.724-.423,1.011,1.011,0,0,1,.761.389.831.831,0,0,1,.188.693,30.171,30.171,0,0,0,.642,6.336,12.038,12.038,0,0,0,.967,2.81l.189.372c.6,1.182,1.028,2.262.251,3.515a2.263,2.263,0,0,1-.72.725A1.848,1.848,0,0,1,144.239,18.255Z" transform="translate(0 10.158)"/>
  </g>
  <g id="HEAD" transform="translate(55.735)">
    <g id="_Skin-4" data-name="âœ‹ Skin" transform="translate(9.961 26.399)">
      <path id="_Skin-5" data-name="âœ‹ Skin" d="M109.547,48.645C108.5,31.36,102.913,11.763,86.476,3.276,50.239-11.329,2.6,25.451.073,63.025-.806,75.886,6.3,89.941,19.3,93.516c2.889,3.844,7.258,6.192,11.571,8.229,51.364,26.762,84.542,5.008,78.678-53.1Z" transform="translate(0 0)" fill="#d08b5b"/>

    </g>
    <path id="_Ink-2" data-name="ðŸ– Ink" d="M154.73,55.443q-2.723-7.595-5.75-15.073A155.9,155.9,0,0,0,142.8,25.94c-14.571-27.605-41.068-27.605-54.765-24-7.1-3.073-20.407-2.206-27.8.567C48.259,7,33.663,24.66,28.673,32.6,17.655,50.116,10.779,73.435,18.1,93.681a45.7,45.7,0,0,0,3.55,7.458,29.052,29.052,0,0,1-2.964,3.389A103.736,103.736,0,0,0,9.294,114.61,50.176,50.176,0,0,0,2.41,126.425c-3.275,8.073-3.433,17.215.9,24.918,3.767,6.7,10.44,11.694,17.959,12.17.386.054.773.1,1.161.143a21.811,21.811,0,0,0,3.6,4.488c4.247,4.057,14.372,6.139,20.147,6.272.3.239.595.478.894.714a64.5,64.5,0,0,0,11.3,7.6c2.748,1.348,6.35,2.473,9.217,1.5A4.984,4.984,0,0,0,72.3,184.2a12.529,12.529,0,0,0,4.892-5.447c2.543-5.249,1.931-10.993,1.278-16.6-.719-6.194-1.411-12.391-2.114-18.585a77.011,77.011,0,0,0-2.593-14.433,33.236,33.236,0,0,0-3.035-6.925,1.142,1.142,0,0,0-.025-.539,6.6,6.6,0,0,0-2.319-3.026c-.133-.119-.266-.242-.4-.367a12.481,12.481,0,0,0-1.655-1.6c-.227-.231-.451-.464-.675-.7a56.474,56.474,0,0,1-5.185-6.225c-1.516-2.14-2.886-4.374-4.189-6.65-1.325-2.315-2.2-4.869-3.525-7.167a.362.362,0,0,0-.562-.072,1.811,1.811,0,0,0-.623,1.395l-.2.031a1.392,1.392,0,0,0-1.7-1.2,6.715,6.715,0,0,1-3.763-.131c.213-1.42.41-2.843.6-4.268.354-2.623.683-5.255.966-7.886a11.362,11.362,0,0,1,2.025.7,9.758,9.758,0,0,1,2.6,1.7c.753.695,1.273,1.631,2.191,2.115a1.4,1.4,0,0,0,2.023-1.562c-.628-2.426-4.184-3.815-6.384-4.274a10.138,10.138,0,0,0-2.3-.208q.261-2.534.457-5.071.091-1.2.169-2.4a12.525,12.525,0,0,1,5.321-.431c.587.47,1.173.934,1.74,1.4,1.8,1.5,3.594,3,5.365,4.53.16.136.318.272.479.411a1.321,1.321,0,0,0,2.186-1.278C61.909,68.9,68.34,60.512,75.869,54.015c8.334-7.194,23.487-8.032,33.4-20.494,4.565.933,14.757,3.7,18.963,10.435,5.888,9.431,5.119,17.882,5.567,28.581s1.588,21.875-.833,32.432c-2.233,9.734-8.279,18.051-17.659,21.875-.232.094-.468.186-.7.275a28.28,28.28,0,0,1-15.246,1.389c-5.648-1.073-10.363-3.668-15.061-6.861-.271-.181-.667.192-.462.464,6.193,8.242,18.357,11,28.005,8.82q.677-.154,1.345-.336a25.7,25.7,0,0,0,8.5,28.447c3.462,2.746,7.756,4.963,10.158,8.817,2.2,3.532,1.547,7.5-2.219,9.54a1.876,1.876,0,0,0-.374,2.921c.36.278.719.561,1.087.839,2.108,1.6,7.9,4.6,8.838,4.71,8.329.992,13.929-5.149,17.518-12.394,4.214-8.5,3.118-18.866-1.525-26.963-3.724-6.5-11.06-12.9-8.143-21.122,1.04-2.937,3.168-5.441,5.235-7.7,2.358-2.576,4.892-4.988,7.153-7.656a27.269,27.269,0,0,0,5.351-8.853c1.624-4.857.816-10.11-.4-14.959C161.741,75.809,158.346,65.539,154.73,55.443Z" transform="translate(-23.52 8.849)"/>
  </g>
  <g id="FACE" transform="translate(99.824 51.687)">
    <path id="_Ink-3" data-name="ðŸ– Ink" d="M29.957,53.3a10.543,10.543,0,0,1-4.006-.8,11.31,11.31,0,0,1-2.615-1.505,11.149,11.149,0,0,1-2.129-2.152,2.207,2.207,0,0,1-.444-1.706,2.46,2.46,0,0,1,.955-1.541,2.35,2.35,0,0,1,1.4-.489,2.029,2.029,0,0,1,.313.024,2.163,2.163,0,0,1,1.448.959l.086.118a7.478,7.478,0,0,0,2.738,2.3,6.206,6.206,0,0,0,2.716.635,6.005,6.005,0,0,0,.673-.038c2.22-.251,3.759-1.4,5.523-3.172.181-.186.373-.387.622-.653a.986.986,0,0,1,.517-.4,1.057,1.057,0,0,1,.336-.054,1.143,1.143,0,0,1,.937.49,1.049,1.049,0,0,1,.177.689,7.1,7.1,0,0,1-2.349,4.511,10.291,10.291,0,0,1-2.425,1.694,10.081,10.081,0,0,1-2.691.925A9.89,9.89,0,0,1,29.957,53.3Zm2.819-16h0a9.662,9.662,0,0,1-3.452-.7,17.423,17.423,0,0,1-4.059-2.308,1.563,1.563,0,0,1-.567-.9,1.874,1.874,0,0,1,.08-1.014,2.306,2.306,0,0,1,.683-.99,1.662,1.662,0,0,1,1.065-.416,1.509,1.509,0,0,1,.824.253l.275.212,0,0c1.411,1.093,3.542,2.744,5.587,2.744a3.332,3.332,0,0,0,2.485-1.1,3.689,3.689,0,0,0,.7-2.965c-.472-2.305-2.974-3.986-3.729-4.447a.7.7,0,0,1-.188-.8,1.036,1.036,0,0,1,1.009-.719,1.409,1.409,0,0,1,.238.021,7.52,7.52,0,0,1,2.648.959,6.012,6.012,0,0,1,1.781,1.646,6.548,6.548,0,0,1,1.137,4.368A6.982,6.982,0,0,1,37.4,35.4,6.267,6.267,0,0,1,32.776,37.3ZM10.316,21.675A2.261,2.261,0,0,1,8.846,21.1a2.3,2.3,0,0,1-.77-1.483,16.736,16.736,0,0,1,.089-4.349c.052-.423.106-.86.144-1.331a2.6,2.6,0,0,1,.985-1.861,3.029,3.029,0,0,1,1.866-.657,2.3,2.3,0,0,1,1.411.445,2.1,2.1,0,0,1,.779,1.39,11.689,11.689,0,0,1-1.216,7.191A2.007,2.007,0,0,1,10.316,21.675Zm32.969-.986a1.978,1.978,0,0,1-1.552-.667A6.708,6.708,0,0,1,40.3,16.468a4.122,4.122,0,0,1,1.12-3.533,2.331,2.331,0,0,1,.179-.274,2.536,2.536,0,0,1,1.952-1.125,2.111,2.111,0,0,1,.593.088,2.857,2.857,0,0,1,1.907,1.668,5.909,5.909,0,0,1,.236,3.226,10.813,10.813,0,0,1-.976,3.043,1.973,1.973,0,0,1-.844.835A2.552,2.552,0,0,1,43.285,20.688ZM.365,10.326a.359.359,0,0,1-.3-.185.4.4,0,0,1-.024-.4,13.7,13.7,0,0,1,3.067-3.89,18.96,18.96,0,0,1,4.1-2.81,17.626,17.626,0,0,1,4.874-1.7l.521-.091a12.657,12.657,0,0,1,2.127-.231A3.283,3.283,0,0,1,17.359,2a2.238,2.238,0,0,1,.527,1.588,1.455,1.455,0,0,1-.527,1.038,4.038,4.038,0,0,1-2.772.815c-.218,0-.444-.006-.663-.011h-.008c-.21-.005-.448-.011-.684-.011-.218,0-.412.005-.593.016a18.7,18.7,0,0,0-4.126.7A28.013,28.013,0,0,0,.557,10.264.341.341,0,0,1,.365,10.326Zm50.2-2.1h0l-.22-.055a12.4,12.4,0,0,1-2.407-.941l-.782-.386a21.685,21.685,0,0,0-2.792-1.192A32.88,32.88,0,0,0,38.006,4.24a2.6,2.6,0,0,1-1.276-.485,1.916,1.916,0,0,1-.713-1.089,1.952,1.952,0,0,1,.22-1.632,2.076,2.076,0,0,1,1.007-.87A2.26,2.26,0,0,1,38.1,0a2.523,2.523,0,0,1,.5.05l.4.082a28.414,28.414,0,0,1,6.868,2.235,13.883,13.883,0,0,1,3.02,1.99,8.833,8.833,0,0,1,2.135,2.765c.075.578.005.721-.072.818l-.022.028-.019.027a.552.552,0,0,1-.341.227Z" transform="translate(14.696 14.45)"/>
  </g>
</svg>
